<?xml version="1.0" standalone="no"?>
<!DOCTYPE svg PUBLIC "-//W3C//DTD SVG 1.1//EN" "http://www.w3.org/Graphics/SVG/1.1/DTD/svg11.dtd" >
<svg>
<metadata>
Created by FontForge 20090622 at Tue Jan 15 02:04:44 2013
 By root
Copyright 2013 Adobe Systems Incorporated. All rights reserved.
</metadata>
<defs>
<font id="Iconset-Regular" horiz-adv-x="1000" >
  <font-face 
    font-family="iconset"
    font-weight="400"
    font-stretch="normal"
    units-per-em="1000"
    panose-1="0 0 0 0 0 0 0 0 0 0"
    ascent="800"
    descent="-200"
    x-height="518"
    cap-height="706"
    bbox="-0.5 -199 1791 938"
    underline-thickness="50"
    underline-position="-50"
    unicode-range="U+000D-U+E003"
  />
<missing-glyph horiz-adv-x="500" 
 />
    <glyph glyph-name="github" unicode="github" 
d="M779 451v4q12 37 12 102q0 77 -55 131q18 53 -7 113q-36 11 -122 -45q-49 12 -103 12q-68 0 -115 -14q-79 49 -114 49l-13 -2q-26 -67 -4 -121q-49 -52 -49 -123q0 -60 16 -102l2 -4l7 -17l2 -4q44 -87 192 -102q-30 -18 -37 -55q-81 -38 -121 34q-23 38 -63 41h-3
q-3 -1 -8 -2.5t-7.5 -4t1.5 -7t15 -10.5q26 -14 43 -60l2 -4q1 -3 5.5 -10t11 -14.5t17.5 -14.5t24.5 -11.5t34 -4.5t44.5 6v-84q-3 -30 -30 -39q-13 -9 4 -16l17 -1q53 15 58 56v90q-6 34 15 47v-147q0 -33 -21 -49q-3 -8 -3 -11q0 -9 16 -4q2 0 6.5 1t13.5 5.5t16.5 11
t13 19t5.5 29.5v151h14v-151q0 -17 5.5 -29.5t12.5 -19t15.5 -11t13.5 -5.5t7 -1q16 -3 16 6l-2 9q-12 9 -19 39v10v147q8 -9 15 -39v-8v-90q0 -26 17.5 -40.5t37.5 -14.5h19q9 3 4 14l-4 2q-22 12 -29 31l-2 8v119q0 57 -37 82q146 16 189 102l2 4zM990 537q20 -101 0 -201
q-11 -58 -29 -94q-21 -43 -47 -84q-57 -87 -135 -135q-42 -26 -84 -46q-46 -21 -93 -30q-100 -20 -202 0q-54 11 -95 30q-39 17 -84 46q-116 74 -182 219q-16 34 -29 94q-21 96 0 201q14 64 29 96q21 47 47 84q80 116 219 181q41 19 95 30q98 20 202 0q46 -9 93 -30
q47 -20 84 -46q86 -59 135 -135q36 -59 47 -84q15 -32 29 -96z" />
    <glyph glyph-name="dribbble" unicode="dribbble" 
d="M607 557q15 -26 36 -73q1 -8 9 -25q174 21 350 -18q-3 180 -115 313q-11 -15 -15 -21t-32 -31.5t-72 -56.5q-78 -57 -161 -88zM832 813l-1 -1q-9 -13 -22 -27t-44 -43t-82.5 -59t-112.5 -52q-92 168 -187 293q50 14 117 14q189 0 332 -125zM473 602q-248 -65 -463 -61
q25 115 97.5 206.5t179.5 143.5q88 -119 186 -289zM555 439l-20 -5q-128 -32 -260 -155q-60 -58 -82 -86q-58 -74 -64 -91q-129 142 -129 336v15q32 -3 82 0q112 10 184 20q131 18 248 50q29 -56 41 -84zM586 355h4q76 -193 105 -378q-88 -41 -195 -41q-173 0 -307 107
q22 40 53 78q40 50 72 80q106 96 268 154zM684 379q172 27 310 -22q-15 -102 -71 -188.5t-142 -147.5q-26 157 -97 358z" />
    <glyph glyph-name="twitter" unicode="twitter" 
d="M760 527v16q38 27 60 64q-29 -12 -70 -19q40 25 55 68q-39 -19 -78 -29q-42 39 -92 39q-52 0 -87.5 -36t-35.5 -87q0 -17 4 -29q-157 9 -256 129q-18 -27 -18 -61q0 -66 55 -103q-28 0 -55 15v-2q0 -45 28.5 -79t71.5 -42q-18 -6 -33 -6q-13 0 -24 4q12 -37 44 -61.5
t71 -24.5q-66 -54 -154 -54q-18 0 -29 1q86 -54 191 -54q161 0 256 107q96 106 96 244zM990 537q20 -101 0 -201q-11 -58 -29 -94q-21 -43 -47 -84q-57 -87 -135 -135q-42 -26 -84 -46q-46 -21 -93 -30q-100 -20 -202 0q-54 11 -95 30q-39 17 -84 46q-116 74 -182 219
q-16 34 -29 94q-21 96 0 201q14 64 29 96q21 47 47 84q80 116 219 181q41 19 95 30q98 20 202 0q46 -9 93 -30q47 -20 84 -46q86 -59 135 -135q36 -59 47 -84q15 -32 29 -96z" />
    <glyph glyph-name="wolf" unicode="wolf" horiz-adv-x="1791" 
d="M1500 783h-1207l480 -709l-93 -137l-680 1001h1791l-680 -1001l-326 481l92 137l234 -342z" />
    <glyph glyph-name=".notdef" horiz-adv-x="500" 
 />
    <glyph glyph-name=".null" horiz-adv-x="0" 
 />
    <glyph glyph-name="nonmarkingreturn" horiz-adv-x="333" 
 />
    <glyph glyph-name="NULL" horiz-adv-x="0" 
 />
    <glyph glyph-name="NULL" horiz-adv-x="0" 
 />
    <glyph glyph-name="CR" unicode="&#xd;" horiz-adv-x="500" 
 />
    <glyph glyph-name="space" unicode=" " horiz-adv-x="500" 
 />
    <glyph glyph-name="A" unicode="A" horiz-adv-x="697" 
d="M351 594l-135 -386h269zM144 0h-102l263 706h87l263 -706h-100l-48 138h-315z" />
    <glyph glyph-name="B" unicode="B" horiz-adv-x="693" 
d="M205 632v-225h181q62 0 88 26q25 28 25 72q0 42 -7 68q-8 24 -25 37q-29 22 -120 22h-142zM205 340v-267h171q84 0 121 27q37 28 37 111q0 129 -134 129h-195zM384 0h-278v706h256q165 0 208 -73q27 -43 27 -121q-1 -104 -89 -135q59 -13 91 -59.5t32 -116.5
q0 -105 -59 -153q-60 -48 -188 -48z" />
    <glyph glyph-name="C" unicode="C" horiz-adv-x="711" 
d="M89 237v222q0 154 80 210q67 48 197 48t189 -36q58 -36 73 -113q7 -40 7 -81l-93 -8q0 71 -13 96q-11 23 -24 36q-12 11 -39 18q-27 9 -86 9q-56 0 -91 -8t-57 -26q-44 -35 -44 -127v-255q0 -92 45 -123q44 -31 144 -31t127 24q28 23 34 68q4 32 4 59h93q0 -105 -31 -150
q-57 -80 -215 -80q-134 0 -196 32q-62 31 -83 86q-21 54 -21 130z" />
    <glyph glyph-name="D" unicode="D" horiz-adv-x="743" 
d="M388 0h-282v706h281q202 0 253 -143q14 -44 14 -95v-233q0 -235 -266 -235zM205 632v-559h173q106 0 142 40q36 39 36 113v248q0 108 -72 140q-40 18 -106 18h-173z" />
    <glyph glyph-name="E" unicode="E" horiz-adv-x="613" 
d="M553 0h-447v706h441v-73h-342v-233h302v-73h-302v-254h348v-73z" />
    <glyph glyph-name="F" unicode="F" horiz-adv-x="566" 
d="M205 0h-99v706h401v-73h-302v-236h285v-73h-285v-324z" />
    <glyph glyph-name="G" unicode="G" horiz-adv-x="760" 
d="M385 -11q-197 0 -259 98q-35 58 -35 150v222q0 152 88 210q69 48 196 48q125 0 185 -29q58 -28 78 -76q18 -48 18 -116l-90 -7q0 69 -13 92q-13 22 -26 33q-14 10 -42 16q-32 8 -89 8t-94 -8q-36 -8 -61 -26q-52 -35 -52 -127v-255q0 -91 50 -123q47 -31 145 -31
q95 0 138 31q43 30 43 123v65h-167v72h266v-359h-54l-12 120q-9 -62 -62.5 -96.5t-150.5 -34.5z" />
    <glyph glyph-name="H" unicode="H" horiz-adv-x="746" 
d="M202 0h-98v706h98v-312h342v312h99v-706h-99v322h-342v-322z" />
    <glyph glyph-name="I" unicode="I" horiz-adv-x="553" 
d="M460 0h-367v73h135v560h-135v73h367v-73h-134v-560h134v-73z" />
    <glyph glyph-name="J" unicode="J" horiz-adv-x="589" 
d="M255 -8q-58 0 -117 13q-65 16 -88 29l27 76q21 -10 76 -25q51 -13 99 -13q68 0 100 34.5t32 105.5v413h-270v81h368v-496q0 -105 -56.5 -161.5t-170.5 -56.5z" />
    <glyph glyph-name="K" unicode="K" horiz-adv-x="692" 
d="M205 0h-99v706h99v-385l187 219l147 166h106l-265 -316l279 -390h-109l-239 337l-106 -108v-229z" />
    <glyph glyph-name="L" unicode="L" horiz-adv-x="559" 
d="M521 0h-415v706h99v-630h316v-76z" />
    <glyph glyph-name="M" unicode="M" horiz-adv-x="868" 
d="M200 0h-94v706h91l238 -394l240 394h87v-706h-93v547l-198 -323h-73l-198 321v-545z" />
    <glyph glyph-name="N" unicode="N" horiz-adv-x="778" 
d="M193 0h-87v706h75l404 -564v564h87v-706h-88l-391 539v-539z" />
    <glyph glyph-name="O" unicode="O" horiz-adv-x="755" 
d="M91 237v222q0 152 86 211q70 47 205 47q240 0 275 -179q7 -35 7 -85v-209q0 -147 -84 -207q-69 -48 -192 -48t-187 32q-65 33 -87 87q-23 55 -23 129zM566 222v256q0 90 -45 126q-45 34 -139 34q-148 0 -180 -82q-13 -34 -13 -78v-256q0 -89 48 -122q49 -32 144 -32
q98 0 141 31q44 32 44 123z" />
    <glyph glyph-name="P" unicode="P" horiz-adv-x="647" 
d="M205 631v-298h184q86 0 95 101q2 12 2 44q0 84 -23 119q-22 34 -71 34h-187zM205 0h-99v706h283q196 0 196 -222q0 -122 -51 -173q-51 -53 -147 -53h-182v-258z" />
    <glyph glyph-name="Q" unicode="Q" horiz-adv-x="753" 
d="M437 -8l93 -142l-69 -38l-112 178q-138 6 -197 64q-61 58 -61 183v222q0 152 86 211q70 47 205 47q240 0 275 -179q7 -35 7 -85v-209q0 -147 -84 -207q-52 -36 -143 -45zM566 222v256q0 90 -45 126q-45 34 -139 34q-148 0 -180 -82q-13 -34 -13 -78v-256q0 -89 48 -122
q49 -32 144 -32q98 0 141 31q44 32 44 123z" />
    <glyph glyph-name="R" unicode="R" horiz-adv-x="715" 
d="M205 631v-264h208q62 0 85 34q22 32 22 95q0 110 -58 130q-14 5 -38 5h-219zM205 0h-99v706h315q147 0 183 -110q14 -39 14 -98q0 -57 -13 -95q-12 -37 -32.5 -58t-53.5 -34l150 -311h-101l-140 293l-223 -1v-292z" />
    <glyph glyph-name="S" unicode="S" horiz-adv-x="637" 
d="M568 198q0 -209 -231 -209q-153 0 -267 66l35 75q39 -23 106 -44q63 -18 122 -18q60 0 90 15q55 29 55 112q0 30 -4 46q-10 38 -82 62l-171 56q-84 29 -110 68q-28 41 -28 106q2 93 68 142q59 42 169 42q157 0 237 -50l-24 -76q-88 47 -196 47q-153 0 -157 -83
q-1 -9 -1 -24q0 -37 14 -54q14 -18 58 -34l178 -60q73 -25 106 -66q33 -39 33 -119z" />
    <glyph glyph-name="T" unicode="T" horiz-adv-x="588" 
d="M343 0h-98v625h-204v81h506v-81h-204v-625z" />
    <glyph glyph-name="U" unicode="U" horiz-adv-x="751" 
d="M379 -11q-190 0 -248 100q-33 55 -33 142v475h98v-485q0 -133 127 -150q25 -3 62 -3q75 0 122 30q48 28 48 123v485h98v-475q0 -138 -81 -195q-67 -47 -193 -47z" />
    <glyph glyph-name="V" unicode="V" horiz-adv-x="677" 
d="M380 0h-86l-252 706h101l195 -562l195 562h102z" />
    <glyph glyph-name="W" unicode="W" 
d="M329 0h-74l-200 706h90l149 -537l154 537h105l161 -537l142 537h89l-192 -706h-74l-173 602z" />
    <glyph glyph-name="X" unicode="X" horiz-adv-x="652" 
d="M149 0h-103l230 357l-219 349h99l171 -268l166 268h106l-222 -348l229 -358h-106l-174 277z" />
    <glyph glyph-name="Y" unicode="Y" horiz-adv-x="644" 
d="M372 0h-99v277l-250 429h104l196 -343l196 343h101l-248 -429v-277z" />
    <glyph glyph-name="Z" unicode="Z" horiz-adv-x="606" 
d="M535 0h-447v73l333 552h-318v81h426v-74l-333 -551h339v-81z" />
    <glyph glyph-name="a" unicode="a" horiz-adv-x="572" 
d="M381 135v150q-37 -37 -105 -56q-71 -22 -96 -41q-27 -20 -27 -56t25 -55q24 -18 59 -18q39 0 64 8q67 22 80 68zM230 -11q-79 0 -122 43q-44 42 -44 106q0 37 16 60q30 49 183 94q88 24 102 41q14 18 15 28q1 7 1 32q0 22 -18 43t-77 21q-83 0 -103 -32q-10 -18 -10 -45
v-23h-88v23q0 147 202 147q100 0 143 -46q43 -44 43 -129v-221q0 -42 10 -53q11 -12 44 -12l-10 -70h-19q-50 0 -73 19q-24 18 -36 58q-40 -59 -98 -76q-29 -8 -61 -8z" />
    <glyph glyph-name="b" unicode="b" horiz-adv-x="588" 
d="M424 162v204q0 91 -115 91q-56 0 -126 -32v-333q53 -30 109 -30q58 0 94 26q38 29 38 74zM183 735v-242q59 34 146 34q85 0 136 -45t51 -123v-187q0 -81 -56 -132t-154 -51q-63 0 -136 46l-11 -35h-68v735h92z" />
    <glyph glyph-name="c" unicode="c" horiz-adv-x="542" 
d="M283 -11q-159 0 -199 111q-12 32 -12 68v197q0 73 56 118q56 44 152 44q122 0 168 -52q36 -42 36 -121l-87 -9q0 69 -25 91q-24 21 -87 21t-92 -22t-29 -72v-203q0 -53 30 -76.5t94 -23.5t84 16q22 17 26 75h85q-7 -90 -51 -126q-45 -36 -149 -36z" />
    <glyph glyph-name="d" unicode="d" horiz-adv-x="586" 
d="M274 62q80 0 129 30v344q-43 21 -108 21q-131 0 -131 -88v-212q0 -47 33 -71t77 -24zM289 527q64 0 114 -19v227h92v-735h-62l-16 34q-25 -19 -63 -32q-41 -13 -77 -13q-105 0 -155 47q-50 48 -50 128v195q0 168 217 168z" />
    <glyph glyph-name="e" unicode="e" horiz-adv-x="565" 
d="M164 371v-62h238v71q0 42 -28.5 59.5t-89.5 17.5q-120 0 -120 -86zM288 -11q-114 0 -165 48q-51 47 -51 146v180q0 78 53.5 121t156.5 43q209 0 209 -157v-123h-327v-73q0 -64 26 -90q26 -24 93 -24q69 0 76 3q26 7 31 16q6 9 10 16q6 10 9 43h81q-9 -91 -52 -120
q-42 -29 -150 -29z" />
    <glyph glyph-name="f" unicode="f" horiz-adv-x="386" 
d="M232 0h-92v448h-86v70h86v78q0 72 39 105.5t120 33.5h58l6 -65h-56q-75 0 -75 -65v-87h125v-70h-125v-448z" />
    <glyph glyph-name="g" unicode="g" horiz-adv-x="579" 
d="M401 129v257q0 71 -118 71q-119 0 -119 -92v-194q0 -81 119 -81q70 0 118 39zM124 -180l20 69q51 -18 125 -18q73 0 103 27q29 29 29 87v72q-19 -19 -60 -28q-39 -9 -72 -9q-197 0 -197 165v170q0 82 50 127t147 45q39 0 80 -16q41 -17 52 -35v42h92v-506q0 -94 -49 -152
q-49 -59 -158 -59q-111 0 -162 19z" />
    <glyph glyph-name="h" unicode="h" horiz-adv-x="599" 
d="M421 0v382q0 75 -115 75q-57 0 -90 -24t-33 -63v-370h-92v735h92v-266q49 58 154 58q132 0 166 -91q10 -30 10 -59v-377h-92z" />
    <glyph glyph-name="i" unicode="i" horiz-adv-x="291" 
d="M192 611h-91v95h91v-95zM192 0h-91v518h91v-518z" />
    <glyph glyph-name="j" unicode="j" horiz-adv-x="294" 
d="M205 611h-92v95h92v-95zM48 -172h-32l-10 76h15q50 0 66 13q26 20 26 81v520h92v-515q0 -127 -59 -157q-34 -18 -98 -18z" />
    <glyph glyph-name="k" unicode="k" horiz-adv-x="563" 
d="M183 0h-92v735h92v-479l247 262h101l-211 -228l232 -290h-106l-186 240l-77 -77v-163z" />
    <glyph glyph-name="l" unicode="l" horiz-adv-x="340" 
d="M285 -4h-26q-88 0 -125 33q-41 35 -41 146v560h92v-561q0 -62 18 -82q19 -19 77 -19h16z" />
    <glyph glyph-name="m" unicode="m" horiz-adv-x="908" 
d="M412 0v381q0 76 -112 76q-55 0 -86 -24t-31 -64v-369h-92v518h92v-51q51 60 155 60q105 0 145 -68l12 12q58 56 157 56q131 0 161 -92q9 -27 9 -59v-376h-92v381q0 76 -101 76q-63 0 -94 -23.5t-31 -64.5v-369h-92z" />
    <glyph glyph-name="n" unicode="n" horiz-adv-x="599" 
d="M421 0v381q0 76 -116 76q-56 0 -89 -24t-33 -64v-369h-92v518h92v-51q51 60 153 60q133 0 167 -92q10 -30 10 -59v-376h-92z" />
    <glyph glyph-name="o" unicode="o" horiz-adv-x="573" 
d="M72 154v208q0 78 52 121q50 44 162 44t163 -44q52 -46 52 -121v-208q0 -76 -52 -121q-53 -44 -163 -44t-162 44q-52 43 -52 121zM409 146v224q0 87 -122 87q-123 0 -123 -87v-224q0 -86 123 -86q122 0 122 86z" />
    <glyph glyph-name="p" unicode="p" horiz-adv-x="585" 
d="M183 402v-315q48 -27 110 -27q61 0 94.5 25.5t33.5 72.5v205q0 46 -33 70t-81 24q-49 0 -81 -19q-36 -23 -43 -36zM183 -199h-92v717h72l11 -39q21 18 61 34q40 14 81 14q98 0 146 -47q51 -46 51 -124v-188q0 -81 -55 -129q-56 -50 -153 -50q-68 0 -122 28v-216z" />
    <glyph glyph-name="q" unicode="q" horiz-adv-x="586" 
d="M286 60q46 0 78 13q35 15 39 25v298q0 25 -29 42q-29 19 -87 19t-90.5 -23.5t-32.5 -68.5v-226q0 -79 122 -79zM495 -199h-92v222q-20 -16 -57 -25q-34 -9 -66 -9q-98 0 -153 44q-55 45 -55 120v202q0 81 52 126q50 46 149 46q40 0 79 -16q40 -16 51 -35v42h92v-717z" />
    <glyph glyph-name="r" unicode="r" horiz-adv-x="388" 
d="M183 0h-92v518h92v-74q16 47 95 70q42 11 84 11l-3 -79q-69 0 -121 -26q-55 -27 -55 -58v-362z" />
    <glyph glyph-name="s" unicode="s" horiz-adv-x="484" 
d="M246 60q104 0 104 77q0 34 -10 50q-9 17 -43 29l-123 46q-57 21 -79 47t-22 69q0 76 35 111q38 38 137 38q101 0 170 -28l-21 -70q-22 9 -65 19q-41 9 -71 9q-70 0 -89 -22q-11 -16 -11 -42q0 -27 9 -39q7 -10 36 -21l121 -47q64 -25 84 -56t20 -94q0 -64 -42 -106
q-41 -41 -128 -41q-62 0 -113 14q-50 14 -76 28l23 68q69 -39 154 -39z" />
    <glyph glyph-name="t" unicode="t" horiz-adv-x="410" 
d="M344 -4h-14q-110 0 -157 34q-48 36 -48 118v300h-86v70h90l11 160h77v-160h130v-70h-130v-294q0 -50 28 -65q28 -16 98 -16h11z" />
    <glyph glyph-name="u" unicode="u" horiz-adv-x="598" 
d="M264 -11q-132 0 -168 94q-10 26 -10 59v376h92v-377q0 -81 112 -81q56 0 90 27q35 27 35 64v367h92v-518h-82l-10 65q-44 -76 -151 -76z" />
    <glyph glyph-name="v" unicode="v" horiz-adv-x="539" 
d="M325 0h-93l-201 518h93l155 -420l139 420h90z" />
    <glyph glyph-name="w" unicode="w" horiz-adv-x="788" 
d="M261 0h-87l-149 518h84l115 -407l125 407h88l130 -407l111 407h85l-152 -518h-85l-132 413z" />
    <glyph glyph-name="x" unicode="x" horiz-adv-x="516" 
d="M123 0h-92l184 260l-181 258h92l135 -193l136 193h89l-180 -257l182 -261h-89l-138 197z" />
    <glyph glyph-name="y" unicode="y" horiz-adv-x="546" 
d="M97 -198v72q61 0 98 30t55 98l-213 516h97l158 -413l133 413h93l-170 -496q-36 -101 -61 -136q-30 -39 -52 -53q-50 -31 -138 -31z" />
    <glyph glyph-name="z" unicode="z" horiz-adv-x="471" 
d="M417 0h-349v58l248 399h-239v61h336v-57l-249 -400h253v-61z" />
  </font>
</defs>
</svg>
