<?xml version="1.0" encoding="utf-8"?>
<!-- Generator: Adobe Illustrator 16.0.0, SVG Export Plug-In . SVG Version: 6.00 Build 0)  -->
<!DOCTYPE svg PUBLIC "-//W3C//DTD SVG 1.1//EN" "http://www.w3.org/Graphics/SVG/1.1/DTD/svg11.dtd">
<svg version="1.1" id="Layer_1" xmlns="http://www.w3.org/2000/svg" xmlns:xlink="http://www.w3.org/1999/xlink" x="0px" y="0px"
	 width="48px" height="48px" viewBox="243.585 44.594 48 48" enable-background="new 243.585 44.594 48 48" xml:space="preserve">
<path d="M272.752,62.845c9.476-3.868,13.325-9.429,13.372-9.497c3.366,4.088,5.401,9.31,5.458,15.005
	c-0.348-0.076-8.472-1.822-16.717-0.785c-0.168-0.412-0.34-0.824-0.518-1.24C273.848,65.154,273.311,63.992,272.752,62.845z
	 M283.441,50.582c-4.228-3.725-9.774-5.988-15.852-5.988c-1.949,0-3.844,0.238-5.655,0.676c0.359,0.477,4.866,6.465,8.972,14.003
	C279.96,55.877,283.38,50.673,283.441,50.582z M266.261,60.714c-4.155-7.384-8.595-13.4-8.913-13.83
	c-6.694,3.164-11.688,9.329-13.246,16.76C244.733,63.656,254.736,63.775,266.261,60.714z M269.251,68.778
	c0.312-0.101,0.627-0.196,0.945-0.284c-0.604-1.367-1.26-2.732-1.949-4.08c-12.356,3.699-24.216,3.43-24.64,3.42
	c-0.008,0.252-0.02,0.506-0.02,0.76c0,6.167,2.328,11.789,6.149,16.039c-0.002-0.002-0.01-0.012-0.01-0.012
	S256.297,72.965,269.251,68.778z M271.672,72.52c-14.234,4.96-18.835,14.994-18.835,14.994s-0.008-0.006-0.01-0.01
	c4.071,3.186,9.192,5.089,14.762,5.089c3.324,0,6.489-0.677,9.37-1.899c-0.355-2.098-1.75-9.446-5.129-18.227
	C271.778,72.487,271.725,72.5,271.672,72.52z M276.328,71.356c3.148,8.651,4.429,15.695,4.671,17.143
	c5.391-3.639,9.218-9.407,10.286-16.098C290.787,72.239,284.075,70.116,276.328,71.356z"/>
</svg>
