<?xml version="1.0" encoding="utf-8"?>
<!-- Generator: Adobe Illustrator 16.0.0, SVG Export Plug-In . SVG Version: 6.00 Build 0)  -->
<!DOCTYPE svg PUBLIC "-//W3C//DTD SVG 1.1//EN" "http://www.w3.org/Graphics/SVG/1.1/DTD/svg11.dtd">
<svg version="1.1" id="Layer_1" xmlns="http://www.w3.org/2000/svg" xmlns:xlink="http://www.w3.org/1999/xlink" x="0px" y="0px"
	 width="48px" height="48px" viewBox="0 0 48 48" enable-background="new 0 0 48 48" xml:space="preserve">
<path d="M24,0C10.745,0,0,10.745,0,24c0,13.254,10.745,24,24,24c13.255,0,24-10.746,24-24C48,10.745,37.255,0,24,0z M30.107,43.038
	c-0.047-0.162-0.062-0.275-0.062-0.275v-5.486c0-2.141-0.851-3.275-1.732-3.873c5.137-0.51,7.652-2.168,8.789-4.746l0.072-0.168
	c0.107-0.26,0.201-0.529,0.285-0.809l0.049-0.172c0.382-1.373,0.496-2.951,0.496-4.713c0-2.525-0.949-4.546-2.488-6.083
	c0.268-0.869,0.627-2.798-0.359-5.271c0,0-1.744-0.552-5.686,2.087c-1.544-0.387-3.188-0.577-4.834-0.577
	c-1.811,0-3.64,0.23-5.347,0.698c-4.069-2.775-5.864-2.207-5.864-2.207c-1.173,2.933-0.448,5.102-0.228,5.641
	c-1.377,1.487-2.219,3.386-2.219,5.713c0,1.757,0.2,3.333,0.688,4.703l0.064,0.172c0.108,0.285,0.227,0.559,0.361,0.824l0.087,0.168
	c1.373,2.561,4.079,4.213,8.896,4.732c-0.683,0.459-1.383,1.24-1.665,2.562c-0.932,0.443-3.885,1.533-5.654-1.51
	c0,0-0.997-1.812-2.893-1.953c0,0-1.853-0.029-0.142,1.145c0,0,1.203,0.58,2.051,2.76c0,0,1.084,3.717,6.396,2.523v3.84
	c0,0-0.017,0.262-0.13,0.59C10.407,41.135,4,33.313,4,24C4,12.972,12.972,4,24,4s20,8.972,20,20
	C44,32.899,38.156,40.45,30.107,43.038z"/>
</svg>
