<?xml version="1.0" encoding="utf-8"?>
<!-- Generator: Adobe Illustrator 16.0.0, SVG Export Plug-In . SVG Version: 6.00 Build 0)  -->
<!DOCTYPE svg PUBLIC "-//W3C//DTD SVG 1.1//EN" "http://www.w3.org/Graphics/SVG/1.1/DTD/svg11.dtd">
<svg version="1.1" id="Layer_1" xmlns="http://www.w3.org/2000/svg" xmlns:xlink="http://www.w3.org/1999/xlink" x="0px" y="0px"
	 width="48px" height="48px" viewBox="260 63 48 48" enable-background="new 260 63 48 48" xml:space="preserve">
<path d="M307.513,82.167c-0.315-1.542-0.787-3.06-1.399-4.509c-0.603-1.424-1.347-2.795-2.214-4.078
	c-0.857-1.271-1.843-2.465-2.929-3.55c-1.085-1.085-2.279-2.07-3.549-2.929c-1.283-0.867-2.655-1.611-4.078-2.213
	c-1.45-0.613-2.968-1.085-4.511-1.4C287.252,63.164,285.625,63,284,63c-1.626,0-3.252,0.164-4.833,0.488
	c-1.543,0.315-3.061,0.786-4.51,1.399c-1.423,0.603-2.795,1.347-4.078,2.214c-1.271,0.858-2.465,1.843-3.55,2.929
	c-1.085,1.085-2.07,2.279-2.928,3.549c-0.867,1.283-1.612,2.655-2.214,4.078c-0.613,1.45-1.085,2.968-1.4,4.51
	C260.164,83.748,260,85.375,260,87c0,1.625,0.164,3.252,0.487,4.833c0.315,1.542,0.787,3.06,1.4,4.51
	c0.602,1.423,1.346,2.795,2.213,4.078c0.858,1.27,1.844,2.464,2.929,3.55c1.085,1.085,2.279,2.069,3.55,2.928
	c1.283,0.867,2.655,1.612,4.078,2.214c1.449,0.613,2.967,1.084,4.51,1.399c1.58,0.323,3.207,0.487,4.833,0.487
	c1.625,0,3.252-0.164,4.833-0.487c1.542-0.315,3.06-0.786,4.51-1.399c1.423-0.603,2.795-1.347,4.078-2.214
	c1.27-0.858,2.464-1.843,3.55-2.928c1.085-1.086,2.07-2.28,2.928-3.55c0.867-1.283,1.612-2.655,2.214-4.078
	c0.613-1.45,1.084-2.968,1.399-4.51C307.835,90.252,308,88.625,308,87C308,85.375,307.836,83.748,307.513,82.167z M298.144,81.005
	c0.013,0.293,0.02,0.587,0.02,0.883c0,9.021-6.867,19.423-19.423,19.423c-3.855,0-7.444-1.13-10.465-3.067
	c0.534,0.063,1.077,0.096,1.629,0.096c3.198,0,6.142-1.092,8.479-2.922c-2.987-0.057-5.51-2.029-6.378-4.742
	c0.416,0.081,0.845,0.124,1.285,0.124c0.622,0,1.225-0.084,1.798-0.24c-3.123-0.627-5.477-3.387-5.477-6.693
	c0-0.029,0-0.058,0.001-0.086c0.92,0.511,1.974,0.819,3.092,0.854c-1.832-1.225-3.037-3.313-3.037-5.683
	c0-1.251,0.337-2.423,0.925-3.432c3.366,4.13,8.397,6.848,14.07,7.133c-0.117-0.5-0.177-1.021-0.177-1.556
	c0-3.771,3.057-6.827,6.826-6.827c1.965,0,3.738,0.829,4.983,2.156c1.555-0.307,3.016-0.874,4.335-1.657
	c-0.509,1.594-1.592,2.933-3.002,3.777c1.381-0.165,2.697-0.532,3.921-1.075C300.635,78.84,299.477,80.042,298.144,81.005z"/>
</svg>
