<?xml version="1.0" encoding="utf-8"?>
<!-- Generator: Adobe Illustrator 16.0.0, SVG Export Plug-In . SVG Version: 6.00 Build 0)  -->
<!DOCTYPE svg PUBLIC "-//W3C//DTD SVG 1.1//EN" "http://www.w3.org/Graphics/SVG/1.1/DTD/svg11.dtd">
<svg version="1.1" id="Layer_1" xmlns="http://www.w3.org/2000/svg" xmlns:xlink="http://www.w3.org/1999/xlink" x="0px" y="0px"
	 width="184.086px" height="184.086px" viewBox="0 0 184.086 184.086" enable-background="new 0 0 184.086 184.086"
	 xml:space="preserve">
<path fill-rule="evenodd" clip-rule="evenodd" d="M182.216,73.507c-1.211-5.916-3.017-11.735-5.369-17.295
	c-2.308-5.457-5.164-10.719-8.488-15.64c-3.291-4.871-7.07-9.451-11.231-13.612c-4.162-4.162-8.742-7.941-13.613-11.231
	c-4.921-3.325-10.183-6.181-15.64-8.489c-5.561-2.352-11.38-4.159-17.296-5.369C104.516,0.629,98.278,0,92.043,0
	C85.807,0,79.57,0.629,73.507,1.87c-5.916,1.21-11.735,3.017-17.295,5.369c-5.457,2.308-10.719,5.164-15.64,8.489
	c-4.871,3.291-9.451,7.069-13.612,11.231c-4.162,4.162-7.941,8.742-11.231,13.612c-3.325,4.921-6.181,10.183-8.489,15.64
	C4.887,61.772,3.08,67.591,1.87,73.507C0.629,79.57,0,85.807,0,92.042c0,6.236,0.629,12.473,1.87,18.536
	c1.21,5.916,3.017,11.734,5.369,17.296c2.308,5.456,5.164,10.719,8.489,15.64c3.291,4.871,7.069,9.451,11.231,13.613
	c4.162,4.161,8.741,7.94,13.612,11.231c4.921,3.324,10.183,6.181,15.64,8.488c5.561,2.353,11.379,4.158,17.295,5.369
	c6.063,1.241,12.3,1.87,18.536,1.87c6.235,0,12.473-0.629,18.535-1.87c5.916-1.211,11.735-3.017,17.296-5.369
	c5.457-2.308,10.719-5.164,15.64-8.488c4.871-3.291,9.451-7.07,13.613-11.231c4.161-4.162,7.94-8.742,11.231-13.613
	c3.324-4.921,6.181-10.184,8.488-15.64c2.353-5.562,4.158-11.38,5.369-17.296c1.24-6.063,1.87-12.3,1.87-18.536
	C184.086,85.807,183.456,79.57,182.216,73.507z M170.626,91.254c-1.142-0.25-27.743-5.966-54.749-2.57
	c-0.553-1.348-1.115-2.702-1.694-4.062c-1.635-3.84-3.396-7.65-5.228-11.401c31.035-12.67,43.64-30.883,43.795-31.108
	C163.774,55.5,170.441,72.601,170.626,91.254z M143.961,33.052c-0.196,0.301-11.397,17.344-41.057,28.461
	C89.465,36.822,74.7,17.213,73.521,15.656c5.942-1.436,12.14-2.216,18.522-2.216C111.948,13.44,130.111,20.854,143.961,33.052z
	 M73.217,15.726c-0.003,0.002-0.013,0.008-0.013,0.008s-0.088,0.018-0.234,0.049C73.052,15.762,73.135,15.746,73.217,15.726z
	 M58.507,20.946c1.041,1.403,15.581,21.111,29.188,45.297c-37.748,10.022-70.506,9.629-72.573,9.593
	C20.224,51.497,36.584,31.305,58.507,20.946z M13.44,92.042c0-0.835,0.037-1.662,0.063-2.492c1.39,0.036,40.23,0.915,80.7-11.196
	c2.254,4.411,4.406,8.886,6.382,13.358c-1.04,0.293-2.073,0.605-3.099,0.936c-42.42,13.711-63.936,51.886-63.936,51.886
	s0.024,0.029,0.033,0.04C21.064,130.653,13.44,112.24,13.44,92.042z M92.043,170.646c-19.026,0-36.471-6.761-50.069-18.01
	c1.037,0.83,1.757,1.373,1.757,1.373s15.071-32.862,61.688-49.106c0.173-0.061,0.346-0.111,0.52-0.17
	c11.063,28.751,15.629,52.823,16.792,59.693C113.303,168.429,102.932,170.646,92.043,170.646z M135.968,157.237
	c-0.797-4.739-4.989-27.812-15.299-56.144c25.371-4.062,47.355,2.89,48.981,3.422C166.155,126.427,153.616,145.322,135.968,157.237z
	"/>
</svg>
