<?xml version="1.0" encoding="utf-8"?>
<!-- Generator: Adobe Illustrator 16.0.0, SVG Export Plug-In . SVG Version: 6.00 Build 0)  -->
<!DOCTYPE svg PUBLIC "-//W3C//DTD SVG 1.1//EN" "http://www.w3.org/Graphics/SVG/1.1/DTD/svg11.dtd">
<svg version="1.1" id="Layer_1" xmlns="http://www.w3.org/2000/svg" xmlns:xlink="http://www.w3.org/1999/xlink" x="0px" y="0px"
	 width="157.186px" height="157.206px" viewBox="0 0 157.186 157.206" enable-background="new 0 0 157.186 157.206"
	 xml:space="preserve">
<path fill-rule="evenodd" clip-rule="evenodd" d="M95.515,59.781c31.035-12.67,43.64-30.883,43.795-31.108
	c11.024,13.388,17.691,30.489,17.876,49.142c-1.142-0.25-27.743-5.966-54.749-2.57c-0.553-1.348-1.115-2.702-1.694-4.062
	C99.108,67.342,97.347,63.531,95.515,59.781z M130.521,19.612C116.671,7.414,98.508,0,78.603,0C72.22,0,66.022,0.78,60.081,2.216
	c1.18,1.558,15.944,21.167,29.384,45.857C119.124,36.956,130.325,19.913,130.521,19.612z M74.254,52.803
	C60.647,28.617,46.108,8.909,45.067,7.506C23.144,17.865,6.784,38.057,1.681,62.396C3.748,62.432,36.506,62.826,74.254,52.803z
	 M84.046,79.209c1.025-0.331,2.059-0.643,3.099-0.936c-1.976-4.472-4.128-8.948-6.382-13.358
	c-40.47,12.111-79.311,11.232-80.7,11.196C0.037,76.94,0,77.767,0,78.603c0,20.197,7.625,38.61,20.143,52.532
	c-0.009-0.011-0.033-0.04-0.033-0.04S41.626,92.92,84.046,79.209z M91.98,91.463c-46.617,16.244-61.688,49.106-61.688,49.106
	s-0.023-0.018-0.035-0.026c13.337,10.427,30.105,16.663,48.346,16.663c10.889,0,21.26-2.217,30.688-6.22
	c-1.163-6.87-5.729-30.942-16.792-59.693C92.326,91.352,92.153,91.402,91.98,91.463z M107.229,87.653
	c10.31,28.332,14.502,51.404,15.299,56.144c17.648-11.915,30.188-30.81,33.683-52.722C154.584,90.543,132.6,83.592,107.229,87.653z"
	/>
</svg>
