<?xml version="1.0" encoding="utf-8"?>
<!-- Generator: Adobe Illustrator 16.0.0, SVG Export Plug-In . SVG Version: 6.00 Build 0)  -->
<!DOCTYPE svg PUBLIC "-//W3C//DTD SVG 1.1//EN" "http://www.w3.org/Graphics/SVG/1.1/DTD/svg11.dtd">
<svg version="1.1" id="Layer_1" xmlns="http://www.w3.org/2000/svg" xmlns:xlink="http://www.w3.org/1999/xlink" x="0px" y="0px"
	 width="184.084px" height="184.085px" viewBox="0 0 184.084 184.085" enable-background="new 0 0 184.084 184.085"
	 xml:space="preserve">
<path d="M182.216,73.507c-1.211-5.916-3.017-11.735-5.367-17.295c-2.31-5.457-5.164-10.719-8.488-15.64
	c-3.291-4.871-7.07-9.451-11.231-13.612c-4.162-4.162-8.741-7.941-13.612-11.231c-4.922-3.325-10.184-6.181-15.641-8.489
	c-5.561-2.352-11.38-4.159-17.296-5.369C104.517,0.629,98.276,0,92.043,0C85.807,0,79.57,0.629,73.507,1.87
	c-5.916,1.21-11.735,3.017-17.295,5.369c-5.457,2.308-10.719,5.164-15.64,8.489c-4.871,3.291-9.451,7.069-13.612,11.231
	c-4.162,4.162-7.941,8.742-11.231,13.612c-3.325,4.921-6.181,10.183-8.489,15.64c-2.353,5.561-4.16,11.38-5.37,17.296
	C0.629,79.57,0,85.807,0,92.042s0.629,12.474,1.87,18.536c1.21,5.916,3.017,11.734,5.369,17.297
	c2.308,5.455,5.164,10.719,8.489,15.64c3.291,4.87,7.069,9.45,11.231,13.612s8.741,7.939,13.612,11.23
	c4.921,3.324,10.183,6.182,15.64,8.488c5.561,2.354,11.379,4.158,17.295,5.369c6.063,1.24,12.3,1.869,18.536,1.869
	c6.234,0,12.475-0.629,18.535-1.869c5.916-1.211,11.734-3.018,17.296-5.369c5.457-2.309,10.719-5.164,15.642-8.488
	c4.869-3.291,9.449-7.068,13.611-11.23c4.161-4.162,7.939-8.742,11.23-13.612c3.324-4.921,6.182-10.185,8.488-15.64
	c2.354-5.562,4.157-11.381,5.368-17.297c1.24-6.062,1.87-12.301,1.87-18.536C184.086,85.807,183.456,79.57,182.216,73.507z"/>
<path d="M529.216,73.507c-1.211-5.916-3.017-11.735-5.367-17.295c-2.31-5.457-5.164-10.719-8.488-15.64
	c-3.291-4.871-7.07-9.451-11.231-13.612c-4.162-4.162-8.741-7.941-13.612-11.231c-4.922-3.325-10.184-6.181-15.641-8.489
	c-5.561-2.352-11.38-4.159-17.296-5.369C451.517,0.629,445.276,0,439.043,0c-6.235,0-12.474,0.629-18.536,1.87
	c-5.916,1.21-11.734,3.017-17.295,5.369c-5.457,2.308-10.719,5.164-15.641,8.489c-4.87,3.291-9.45,7.069-13.611,11.231
	c-4.162,4.162-7.941,8.742-11.23,13.612c-3.326,4.921-6.182,10.183-8.489,15.64c-2.353,5.561-4.16,11.38-5.37,17.296
	c-1.241,6.063-1.87,12.3-1.87,18.535s0.629,12.474,1.87,18.536c1.21,5.916,3.018,11.734,5.369,17.297
	c2.308,5.455,5.164,10.719,8.488,15.64c3.291,4.87,7.069,9.45,11.231,13.612s8.741,7.939,13.612,11.23
	c4.921,3.324,10.183,6.182,15.64,8.488c5.562,2.354,11.379,4.158,17.295,5.369c6.063,1.24,12.3,1.869,18.536,1.869
	c6.234,0,12.475-0.629,18.535-1.869c5.916-1.211,11.734-3.018,17.296-5.369c5.457-2.309,10.719-5.164,15.642-8.488
	c4.869-3.291,9.449-7.068,13.611-11.23c4.161-4.162,7.939-8.742,11.23-13.612c3.324-4.921,6.182-10.185,8.488-15.64
	c2.354-5.562,4.157-11.381,5.368-17.297c1.24-6.062,1.87-12.301,1.87-18.536C531.086,85.807,530.456,79.57,529.216,73.507z"/>
<path fill="#FFFFFF" d="M504.281,123.759l-0.246,0.854c-0.414,1.381-0.88,2.721-1.412,4.01l-0.358,0.832
	c-5.627,12.77-18.093,20.988-43.545,23.514c4.367,2.963,8.582,8.578,8.582,19.184v27.189c0,0,0.81,6.727,6.978,8.969
	c0,0,3.83,2.525-0.094,3.924c0,0-16.91,1.402-16.91-12.611V178.88c0,0,0-7.65-3.759-10.793v33.777c0,0,0.414,8.127,4.618,11.211
	c0,0,2.87,5.043-3.295,3.645c0,0-11.738-1.73-12.299-15.465l-0.237-34.529h-2.828l-0.269,34.529
	c-0.559,13.734-12.333,15.439-12.333,15.439c-6.166,1.4-3.134-3.631-3.134-3.631c4.206-3.084,4.713-11.201,4.713-11.201v-34.07
	c-5.013,2.857-3.759,11.086-3.759,11.086v20.744c0,14.016-17.13,12.611-17.13,12.611c-3.927-1.4-0.58-3.924-0.58-3.924
	c6.169-2.242,6.43-8.969,6.43-8.969v-19.025c-26.316,5.91-31.688-12.504-31.688-12.504c-4.204-10.797-10.162-13.67-10.162-13.67
	c-8.48-5.82,0.701-5.678,0.701-5.678c9.394,0.701,14.335,9.676,14.335,9.676c8.768,15.078,23.396,9.688,28.014,7.482
	c1.4-6.549,4.864-10.418,8.252-12.695c-23.867-2.572-37.278-10.764-44.081-23.449l-0.434-0.826c-0.665-1.316-1.257-2.68-1.792-4.084
	l-0.315-0.855c-2.421-6.787-3.411-14.596-3.411-23.301c0-11.53,4.168-20.936,10.995-28.304c-1.093-2.669-4.684-13.424,1.125-27.949
	c0,0,8.898-2.817,29.058,10.937c8.457-2.32,17.521-3.462,26.496-3.462c8.155,0,16.298,0.943,23.948,2.855
	c19.531-13.073,28.168-10.331,28.168-10.331c4.894,12.241,3.111,21.803,1.78,26.107c7.632,7.618,12.333,17.629,12.333,30.145
	C506.735,109.134,506.17,116.96,504.281,123.759z"/>
<polygon fill="#FFFFFF" points="407.008,216.964 417.19,203.548 423.738,160.992 458.656,163.175 462.292,200.638 475.023,218.46 
	"/>
<path d="M986.549,73.507c-1.211-5.916-3.017-11.735-5.367-17.295c-2.31-5.457-5.164-10.719-8.488-15.64
	c-3.291-4.871-7.07-9.451-11.231-13.612c-4.162-4.162-8.741-7.941-13.612-11.231c-4.922-3.325-10.184-6.181-15.641-8.489
	c-5.561-2.352-11.38-4.159-17.296-5.369C908.85,0.629,902.609,0,896.376,0c-6.235,0-12.474,0.629-18.536,1.87
	c-5.916,1.21-11.734,3.017-17.295,5.369c-5.457,2.308-10.719,5.164-15.641,8.489c-4.87,3.291-9.45,7.069-13.611,11.231
	c-4.162,4.162-7.941,8.742-11.23,13.612c-3.326,4.921-6.182,10.183-8.489,15.64c-2.353,5.561-4.16,11.38-5.37,17.296
	c-1.241,6.063-1.87,12.3-1.87,18.535s0.629,12.474,1.87,18.536c1.21,5.916,3.018,11.734,5.369,17.297
	c2.308,5.455,5.164,10.719,8.488,15.64c3.291,4.87,7.069,9.45,11.231,13.612s8.741,7.939,13.612,11.23
	c4.921,3.324,10.183,6.182,15.64,8.488c5.562,2.354,11.379,4.158,17.295,5.369c6.063,1.24,12.3,1.869,18.536,1.869
	c6.234,0,12.475-0.629,18.535-1.869c5.916-1.211,11.734-3.018,17.296-5.369c5.457-2.309,10.719-5.164,15.642-8.488
	c4.869-3.291,9.449-7.068,13.611-11.23c4.161-4.162,7.939-8.742,11.23-13.612c3.324-4.921,6.182-10.185,8.488-15.64
	c2.354-5.562,4.157-11.381,5.368-17.297c1.24-6.062,1.87-12.301,1.87-18.536C988.419,85.807,987.789,79.57,986.549,73.507z"/>
<path fill="#FFFFFF" d="M951.736,70.265c1.331-4.305,3.113-13.867-1.78-26.107c0,0-8.637-2.742-28.168,10.331
	c-7.65-1.912-15.793-2.855-23.948-2.855c-8.975,0-18.039,1.142-26.496,3.462c-20.159-13.754-29.058-10.937-29.058-10.937
	c-5.809,14.525-2.218,25.28-1.125,27.949c-6.827,7.368-10.995,16.773-10.995,28.304c0,8.705,0.99,16.514,3.411,23.301l0.315,0.855
	c0.535,1.404,1.127,2.768,1.792,4.084l0.434,0.826c6.803,12.686,20.214,20.877,44.081,23.449c-3.185,2.141-6.436,5.689-7.978,11.549
	c0.918,0.805,1.54,1.992,1.57,3.566c0.045,2.357-0.445,4.657-1.22,6.873c-0.554,1.586-1.218,3.184-1.28,4.877
	c-0.031,0.834-0.229,1.559-0.545,2.177v17.372c0,0-0.261,6.727-6.43,8.969c0,0-3.347,2.523,0.58,3.924c0,0,1.243,0.1,3.053-0.024
	l-3.609,4.755l68.016,1.496l-4.504-6.306c2.135,0.203,3.666,0.079,3.666,0.079c3.924-1.398,0.094-3.924,0.094-3.924
	c-6.168-2.242-6.978-8.969-6.978-8.969v-27.189c0-10.605-4.215-16.221-8.582-19.184c25.452-2.525,37.918-10.744,43.545-23.514
	l0.358-0.832c0.532-1.289,0.998-2.629,1.412-4.01l0.246-0.854c1.889-6.799,2.454-14.625,2.455-23.35
	C964.069,87.895,959.368,77.883,951.736,70.265z"/>
<g>
	<path d="M761.542,107.972l0.133-0.658c-14.768-2.953-29.922-2.982-39.09-2.602c1.506-5.426,1.959-11.67,1.959-18.632
		c0-9.986-3.752-17.975-9.843-24.054c1.064-3.436,2.486-11.066-1.42-20.833c0,0-6.891-2.188-22.477,8.244
		c-6.105-1.526-12.604-2.279-19.112-2.279c-7.16,0-14.395,0.912-21.143,2.763c-16.086-10.975-23.186-8.727-23.186-8.727
		c-4.637,11.59-1.77,20.171-0.898,22.303c-5.449,5.879-8.775,13.384-8.775,22.585c0,6.947,0.793,13.177,2.725,18.593
		c-9.246-0.336-23.85-0.207-38.09,2.641l0.133,0.658c14.324-2.865,29.018-2.965,38.209-2.617c0.426,1.121,0.898,2.209,1.43,3.26
		c-9.088,0.293-24.604,1.451-39.475,5.646l0.182,0.645c14.988-4.227,30.641-5.355,39.641-5.631
		c5.43,10.121,16.135,16.658,35.18,18.711c-2.703,1.816-5.459,4.904-6.578,10.129c-3.684,1.762-15.344,6.062-22.34-5.971
		c0,0-3.916-7.16-11.41-7.721c0,0-7.271-0.111-0.504,4.531c0,0,4.867,2.293,8.223,10.908c0,0,4.379,14.695,25.512,9.98v15.18
		c0,0-0.447,5.369-5.369,7.158c0,0-2.908,2.014,0.225,3.131c0,0,13.645,1.119,13.645-10.064v-16.553c0,0-0.539-6.564,2.684-8.846
		v27.188c0,0-0.223,6.486-3.578,8.947c0,0-2.236,4.025,2.684,2.908c0,0,9.395-1.342,9.842-12.303l0.215-27.514h2.257l0.215,27.514
		c0.447,10.961,9.842,12.303,9.842,12.303c4.92,1.117,2.684-2.908,2.684-2.908c-3.355-2.461-3.578-8.947-3.578-8.947v-26.953
		c3.223,2.51,2.684,8.611,2.684,8.611v16.553c0,11.184,13.645,10.064,13.645,10.064c3.131-1.117,0.225-3.131,0.225-3.131
		c-4.922-1.789-5.369-7.158-5.369-7.158v-21.697c0-8.461-3.562-12.941-7.047-15.307c20.311-2.014,30.057-8.572,34.548-18.762
		c8.896,0.244,24.906,1.328,40.221,5.648l0.182-0.645c-15.227-4.295-31.131-5.406-40.117-5.668c0.426-1.029,0.797-2.1,1.127-3.201
		C731.493,105.003,746.716,105.007,761.542,107.972L761.542,107.972z M761.542,107.972"/>
	<path fill="#FFFFFF" d="M704.678,85.609c4.375,3.963,6.934,8.75,6.934,13.906c0,24.074-17.947,24.727-40.085,24.727
		c-22.139,0-40.086-3.334-40.086-24.727c0-5.123,2.523-9.878,6.846-13.826c7.205-6.578,19.404-3.095,33.24-3.095
		C685.309,82.595,697.461,79.076,704.678,85.609L704.678,85.609z M704.678,85.609"/>
	<path fill="#FFFFFF" d="M658.196,100.742c0,6.631-3.734,12.006-8.34,12.006s-8.342-5.375-8.342-12.006s3.736-12.003,8.342-12.003
		S658.196,94.111,658.196,100.742L658.196,100.742z M658.196,100.742"/>
	<path d="M655.521,100.892c0,4.42-2.49,8.002-5.561,8.002c-3.072,0-5.561-3.582-5.561-8.002c0-4.422,2.488-8.006,5.561-8.006
		C653.03,92.886,655.521,96.47,655.521,100.892L655.521,100.892z M655.521,100.892"/>
	<path fill="#FFFFFF" d="M702.943,100.742c0,6.631-3.734,12.006-8.342,12.006c-4.605,0-8.34-5.375-8.34-12.006
		s3.734-12.003,8.34-12.003C699.209,88.738,702.943,94.111,702.943,100.742L702.943,100.742z M702.943,100.742"/>
	<path d="M700.266,100.892c0,4.42-2.49,8.002-5.561,8.002s-5.561-3.582-5.561-8.002c0-4.422,2.49-8.006,5.561-8.006
		S700.266,96.47,700.266,100.892L700.266,100.892z M700.266,100.892"/>
	<path d="M673.73,111.404c0,1.152-0.934,2.086-2.087,2.086c-1.152,0-2.086-0.934-2.086-2.086s0.934-2.086,2.086-2.086
		C672.797,109.318,673.73,110.251,673.73,111.404L673.73,111.404z M673.73,111.404"/>
	<path d="M666.784,116.677c-0.123-0.35,0.061-0.732,0.41-0.855c0.348-0.123,0.732,0.061,0.855,0.408
		c0.535,1.516,1.973,2.533,3.576,2.533c1.604,0,3.042-1.018,3.579-2.533c0.123-0.35,0.506-0.531,0.855-0.408
		s0.531,0.506,0.408,0.855c-0.725,2.049-2.672,3.426-4.843,3.426C669.456,120.103,667.511,118.726,666.784,116.677L666.784,116.677z
		 M666.784,116.677"/>
</g>
<path fill="#FFFFFF" d="M110.813,212.453c-0.138-0.025-0.29-0.055-0.458-0.094l-0.102-0.023l-0.103-0.014
	c-0.389-0.061-9.861-1.665-10.334-13.231l-0.29-37.424h-7.917l-0.293,37.509c-0.47,11.481-9.943,13.086-10.346,13.147l-0.188,0.036
	c-0.168,0.039-0.321,0.068-0.459,0.094c4.28-4.036,4.669-11.69,4.701-12.602l0.001-39.574l-4.013,2.84
	c-4.98,3.526-4.589,12.004-4.486,13.422v20.95c0,3.695-1.623,9.797-12.193,10.266c5.81-3.348,6.437-10.028,6.463-10.34l0.009-0.105
	v-22.58l-3.097,0.69c-3.345,0.746-6.512,1.125-9.411,1.125c-16.108,0-19.889-11.581-20.042-12.074l-0.063-0.183
	c-4.169-10.704-10.231-14.44-11.509-15.13c-0.567-0.394-1.009-0.73-1.352-1.014c0.188-0.014,0.381-0.021,0.575-0.022
	c8.001,0.653,12.336,8.415,12.379,8.495c5.638,9.697,13.459,11.722,19.033,11.721c5.494,0,10.317-1.915,12.702-3.055l1.127-0.54
	l0.262-1.223c1.062-4.959,3.517-8.762,7.296-11.301l5.792-3.892l-6.937-0.748c-22.239-2.397-35.828-9.535-42.765-22.466
	l-0.433-0.822c-0.591-1.17-1.166-2.48-1.691-3.863l-0.312-0.845c-2.222-6.23-3.307-13.685-3.307-22.762
	c0-10.406,3.526-19.486,10.48-26.989l1.103-1.19l-0.614-1.501c-1.081-2.645-4.127-12.069,0.626-25.085
	c0.153-0.006,0.323-0.011,0.508-0.011c2.926,0,11.289,1.062,25.702,10.896l0.972,0.663l1.135-0.311
	c8.162-2.239,17.225-3.422,26.211-3.422c8.223,0,16.192,0.949,23.686,2.822l1.094,0.273l0.938-0.627
	c13.385-8.958,21.29-10.296,24.812-10.296c0.188,0,0.36,0.004,0.516,0.011c3.974,10.886,2.496,19.295,1.216,23.428l-0.455,1.468
	l1.087,1.085c7.81,7.793,11.77,17.479,11.77,28.786c0,9.938-0.74,17.037-2.398,23.012l-0.243,0.836
	c-0.412,1.376-0.853,2.629-1.34,3.808l-0.35,0.813c-5.793,13.142-18.701,20.034-41.845,22.329l-6.984,0.692l5.808,3.941
	c5.205,3.534,7.846,9.376,7.846,17.36v27.695l0.009,0.105c0.025,0.312,0.651,6.988,6.457,10.336
	c-5.075-0.244-12.188-2.055-12.188-10.262v-20.943c0.106-1.375,0.481-9.265-4.393-13.062l-4.105-3.197v39.478
	C106.144,200.757,106.533,208.416,110.813,212.453z"/>
<path stroke="#FFFFFF" stroke-width="14" d="M159.891,120.514c1.915-6.899,2.491-14.839,2.491-23.692
	c0-12.699-4.771-22.856-12.516-30.586c1.354-4.369,3.161-14.071-1.806-26.491c0,0-8.762-2.782-28.581,10.482
	c-7.763-1.94-16.025-2.898-24.302-2.898c-9.105,0-18.304,1.159-26.885,3.513C47.839,36.886,38.811,39.744,38.811,39.744
	c-5.896,14.737-2.25,25.649-1.142,28.36C30.74,75.58,26.51,85.122,26.51,96.822c0,8.834,1.008,16.756,3.464,23.643l0.32,0.867
	c0.542,1.426,1.143,2.809,1.818,4.145l0.442,0.84c6.904,12.869,20.517,21.182,44.733,23.792c-3.437,2.31-6.941,6.236-8.365,12.88
	c-4.684,2.24-19.51,7.709-28.406-7.592c0,0-4.979-9.105-14.509-9.818c0,0-9.247-0.141-0.641,5.763c0,0,6.189,2.915,10.456,13.87
	c0,0,5.568,18.687,32.44,12.69v19.303c0,0-0.568,6.827-6.827,9.102c0,0-3.698,2.561,0.286,3.981c0,0,17.35,1.423,17.35-12.798
	v-21.048c0,0-0.686-8.347,3.412-11.248v34.571c0,0-0.283,8.247-4.55,11.377c0,0-2.843,5.118,3.413,3.698
	c0,0,11.945-1.707,12.515-15.645l0.273-34.985h2.869l0.273,34.985c0.568,13.938,12.515,15.645,12.515,15.645
	c6.256,1.42,3.412-3.698,3.412-3.698c-4.267-3.13-4.55-11.377-4.55-11.377v-34.273c4.098,3.191,3.412,10.95,3.412,10.95v21.048
	c0,14.221,17.351,12.798,17.351,12.798c3.98-1.421,0.285-3.981,0.285-3.981c-6.259-2.274-6.827-9.102-6.827-9.102v-27.59
	c0-10.759-4.53-16.456-8.961-19.464c25.826-2.561,38.22-10.899,43.931-23.856l0.362-0.845c0.541-1.309,1.013-2.67,1.433-4.07
	L159.891,120.514z M94.966,145.347c-28.15,0-50.972-4.239-50.972-31.441c0-6.515,3.209-12.562,8.705-17.581
	c9.162-8.364,24.674-3.934,42.267-3.934c17.525,0,32.979-4.475,42.154,3.833c5.563,5.039,8.817,11.126,8.817,17.683
	C145.938,144.518,123.116,145.347,94.966,145.347z M74.614,115.657c0,5.62-3.167,10.175-7.071,10.175
	c-3.906,0-7.07-4.555-7.07-10.175c0-5.623,3.164-10.181,7.07-10.181C71.447,105.476,74.614,110.034,74.614,115.657L74.614,115.657z
	 M74.614,115.657 M131.511,115.657c0,5.62-3.167,10.175-7.071,10.175s-7.07-4.555-7.07-10.175c0-5.623,3.166-10.181,7.07-10.181
	S131.511,110.034,131.511,115.657L131.511,115.657z M131.511,115.657 M97.769,129.023c0,1.465-1.187,2.652-2.653,2.652
	c-1.465,0-2.652-1.188-2.652-2.652s1.188-2.652,2.652-2.652C96.582,126.371,97.769,127.558,97.769,129.023L97.769,129.023z
	 M97.769,129.023 M88.937,135.728c-0.157-0.444,0.077-0.931,0.521-1.088c0.442-0.156,0.931,0.077,1.087,0.52
	c0.681,1.928,2.508,3.221,4.547,3.221c2.04,0,3.868-1.293,4.551-3.221c0.157-0.444,0.644-0.676,1.088-0.52
	c0.445,0.157,0.676,0.644,0.52,1.088c-0.922,2.605-3.397,4.356-6.158,4.356C92.334,140.084,89.86,138.333,88.937,135.728
	L88.937,135.728z M88.937,135.728"/>
<path fill="#FFFFFF" d="M78.336,136.892"/>
<path fill="#FFFFFF" d="M123.081,136.892"/>
<path fill="#FFFFFF" d="M96.546,147.404"/>
<path fill="#FFFFFF" d="M89.6,152.677"/>
<path d="M-46.284,73.507c-1.211-5.916-3.017-11.735-5.367-17.295c-2.31-5.457-5.164-10.719-8.488-15.64
	c-3.291-4.871-7.07-9.451-11.231-13.612c-4.162-4.162-8.741-7.941-13.612-11.231c-4.922-3.325-10.184-6.181-15.641-8.489
	c-5.561-2.352-11.38-4.159-17.296-5.369C-123.983,0.629-130.224,0-136.457,0c-6.236,0-12.473,0.629-18.536,1.87
	c-5.916,1.21-11.735,3.017-17.295,5.369c-5.457,2.308-10.719,5.164-15.64,8.489c-4.871,3.291-9.451,7.069-13.612,11.231
	c-4.162,4.162-7.941,8.742-11.231,13.612c-3.325,4.921-6.181,10.183-8.489,15.64c-2.353,5.561-4.16,11.38-5.37,17.296
	c-1.241,6.063-1.87,12.3-1.87,18.535s0.629,12.474,1.87,18.536c1.21,5.916,3.017,11.734,5.369,17.297
	c2.308,5.455,5.164,10.719,8.489,15.64c3.291,4.87,7.069,9.45,11.231,13.612s8.741,7.939,13.612,11.23
	c4.921,3.324,10.183,6.182,15.64,8.488c5.561,2.354,11.379,4.158,17.295,5.369c6.063,1.24,12.3,1.869,18.536,1.869
	c6.234,0,12.475-0.629,18.535-1.869c5.916-1.211,11.734-3.018,17.296-5.369c5.457-2.309,10.719-5.164,15.642-8.488
	c4.869-3.291,9.449-7.068,13.611-11.23c4.161-4.162,7.939-8.742,11.23-13.612c3.324-4.921,6.182-10.185,8.488-15.64
	c2.354-5.562,4.157-11.381,5.368-17.297c1.24-6.062,1.87-12.301,1.87-18.536C-44.414,85.807-45.044,79.57-46.284,73.507z"/>
<path fill="#FFFFFF" d="M-121.695,213.015c-0.108-0.02-0.229-0.043-0.36-0.073l-0.08-0.019l-0.08-0.011
	c-0.306-0.048-7.756-1.31-8.127-10.405l-0.229-29.432h-6.226l-0.23,29.498c-0.37,9.029-7.819,10.291-8.136,10.34l-0.148,0.028
	c-0.132,0.03-0.252,0.054-0.361,0.073c3.366-3.174,3.672-9.193,3.697-9.91l0.001-31.122l-3.156,2.233
	c-3.917,2.773-3.609,9.44-3.528,10.556v16.476c0,2.906-1.276,7.704-9.589,8.073c4.569-2.633,5.062-7.887,5.083-8.132l0.007-0.083
	v-17.758l-2.436,0.543c-2.631,0.587-5.121,0.885-7.401,0.885c-12.668,0-15.642-9.107-15.762-9.495l-0.05-0.144
	c-3.279-8.418-8.046-11.356-9.051-11.898c-0.446-0.31-0.793-0.575-1.063-0.798c0.148-0.011,0.3-0.017,0.452-0.018
	c6.292,0.514,9.701,6.618,9.735,6.681c4.434,7.627,10.585,9.219,14.968,9.218c4.32,0,8.113-1.506,9.989-2.402l0.887-0.425
	l0.206-0.961c0.835-3.9,2.766-6.891,5.738-8.888l4.555-3.061l-5.456-0.588c-17.49-1.886-28.176-7.499-33.632-17.668l-0.34-0.646
	c-0.464-0.92-0.917-1.951-1.33-3.038l-0.246-0.665c-1.748-4.899-2.601-10.762-2.601-17.9c0-8.184,2.773-15.324,8.242-21.225
	l0.867-0.936l-0.482-1.181c-0.85-2.08-3.246-9.491,0.492-19.728c0.121-0.005,0.254-0.008,0.4-0.008
	c2.301,0,8.877,0.835,20.213,8.569l0.764,0.521l0.893-0.245c6.418-1.761,13.546-2.691,20.613-2.691
	c6.467,0,12.734,0.747,18.627,2.22l0.86,0.215l0.737-0.493c10.526-7.045,16.743-8.097,19.513-8.097c0.147,0,0.283,0.003,0.405,0.008
	c3.125,8.561,1.963,15.174,0.956,18.424l-0.357,1.154l0.854,0.854c6.142,6.129,9.256,13.746,9.256,22.638
	c0,7.816-0.582,13.398-1.886,18.098l-0.191,0.657c-0.324,1.082-0.671,2.067-1.054,2.994l-0.275,0.64
	c-4.556,10.335-14.707,15.756-32.907,17.561l-5.493,0.545l4.567,3.1c4.094,2.779,6.17,7.373,6.17,13.652v21.78l0.007,0.083
	c0.021,0.245,0.513,5.496,5.078,8.129c-3.991-0.192-9.585-1.616-9.585-8.07v-16.471c0.083-1.081,0.378-7.286-3.455-10.271
	l-3.229-2.515v31.046C-125.368,203.818-125.062,209.84-121.695,213.015z"/>
<path d="M-83.1,140.712c1.506-5.426,1.959-11.67,1.959-18.633c0-9.986-3.752-17.975-9.843-24.054
	c1.064-3.436,2.486-11.066-1.42-20.833c0,0-6.891-2.188-22.477,8.244c-6.105-1.526-12.604-2.279-19.112-2.279
	c-7.16,0-14.395,0.912-21.143,2.763c-16.086-10.975-23.186-8.727-23.186-8.727c-4.637,11.59-1.77,20.171-0.898,22.303
	c-5.449,5.879-8.775,13.383-8.775,22.584c0,6.947,0.793,13.178,2.725,18.594l0.252,0.682c0.426,1.121,0.898,2.209,1.43,3.26
	l0.348,0.66c5.43,10.121,16.135,16.658,35.18,18.711c-2.703,1.816-5.459,4.904-6.578,10.129c-3.684,1.762-15.344,6.062-22.34-5.971
	c0,0-3.916-7.16-11.41-7.721c0,0-7.271-0.111-0.504,4.531c0,0,4.867,2.293,8.223,10.908c0,0,4.379,14.695,25.512,9.98v15.18
	c0,0-0.447,5.369-5.369,7.158c0,0-2.908,2.014,0.225,3.131c0,0,13.645,1.119,13.645-10.064v-16.553c0,0-0.539-6.564,2.684-8.846
	v27.188c0,0-0.223,6.486-3.578,8.947c0,0-2.236,4.025,2.684,2.908c0,0,9.395-1.342,9.842-12.303l0.215-27.514h2.257l0.215,27.514
	c0.447,10.961,9.842,12.303,9.842,12.303c4.92,1.117,2.684-2.908,2.684-2.908c-3.355-2.461-3.578-8.947-3.578-8.947v-26.953
	c3.223,2.51,2.684,8.611,2.684,8.611v16.553c0,11.184,13.645,10.064,13.645,10.064c3.131-1.117,0.225-3.131,0.225-3.131
	c-4.922-1.789-5.369-7.158-5.369-7.158v-21.697c0-8.461-3.562-12.941-7.047-15.307c20.311-2.014,30.057-8.572,34.548-18.762
	l0.285-0.664c0.426-1.029,0.797-2.1,1.127-3.201L-83.1,140.712z M-134.158,160.242c-22.139,0-40.086-3.334-40.086-24.727
	c0-5.123,2.523-9.879,6.846-13.826c7.205-6.578,19.404-3.094,33.24-3.094c13.782,0,25.935-3.52,33.151,3.014
	c4.375,3.963,6.934,8.75,6.934,13.906C-94.073,159.589-112.021,160.242-134.158,160.242z M-150.164,136.892
	c0,4.42-2.49,8.002-5.561,8.002c-3.072,0-5.561-3.582-5.561-8.002c0-4.422,2.488-8.006,5.561-8.006
	C-152.654,128.886-150.164,132.47-150.164,136.892L-150.164,136.892z M-150.164,136.892 M-105.419,136.892
	c0,4.42-2.49,8.002-5.561,8.002s-5.561-3.582-5.561-8.002c0-4.422,2.49-8.006,5.561-8.006S-105.419,132.47-105.419,136.892
	L-105.419,136.892z M-105.419,136.892 M-131.954,147.404c0,1.152-0.934,2.086-2.087,2.086c-1.152,0-2.086-0.934-2.086-2.086
	s0.934-2.086,2.086-2.086C-132.888,145.318-131.954,146.251-131.954,147.404L-131.954,147.404z M-131.954,147.404 M-138.9,152.677
	c-0.123-0.35,0.061-0.732,0.41-0.855c0.348-0.123,0.732,0.061,0.855,0.408c0.535,1.516,1.973,2.533,3.576,2.533
	c1.604,0,3.042-1.018,3.579-2.533c0.123-0.35,0.506-0.531,0.855-0.408s0.531,0.506,0.408,0.855
	c-0.725,2.049-2.672,3.426-4.843,3.426C-136.229,156.103-138.174,154.726-138.9,152.677L-138.9,152.677z M-138.9,152.677"/>
<path fill="#FFFFFF" d="M-150.164,136.892"/>
<path fill="#FFFFFF" d="M-105.419,136.892"/>
<path fill="#FFFFFF" d="M-131.954,147.404"/>
<path fill="#FFFFFF" d="M-138.9,152.677"/>
<path d="M-268.951,73.507c-1.211-5.916-3.017-11.735-5.367-17.295c-2.31-5.457-5.164-10.719-8.488-15.64
	c-3.291-4.871-7.07-9.451-11.231-13.612c-4.162-4.162-8.741-7.941-13.612-11.231c-4.922-3.325-10.184-6.181-15.641-8.489
	c-5.561-2.352-11.38-4.159-17.296-5.369C-346.65,0.629-352.89,0-359.124,0c-6.236,0-12.473,0.629-18.536,1.87
	c-5.916,1.21-11.735,3.017-17.295,5.369c-5.457,2.308-10.719,5.164-15.64,8.489c-4.871,3.291-9.451,7.069-13.612,11.231
	c-4.162,4.162-7.941,8.742-11.231,13.612c-3.325,4.921-6.181,10.183-8.489,15.64c-2.353,5.561-4.16,11.38-5.37,17.296
	c-1.241,6.063-1.87,12.3-1.87,18.535s0.629,12.474,1.87,18.536c1.21,5.916,3.017,11.734,5.369,17.297
	c2.308,5.455,5.164,10.719,8.489,15.64c3.291,4.87,7.069,9.45,11.231,13.612s8.741,7.939,13.612,11.23
	c4.921,3.324,10.183,6.182,15.64,8.488c5.561,2.354,11.379,4.158,17.295,5.369c6.063,1.24,12.3,1.869,18.536,1.869
	c6.234,0,12.475-0.629,18.535-1.869c5.916-1.211,11.734-3.018,17.296-5.369c5.457-2.309,10.719-5.164,15.642-8.488
	c4.869-3.291,9.449-7.068,13.611-11.23c4.161-4.162,7.939-8.742,11.23-13.612c3.324-4.921,6.182-10.185,8.488-15.64
	c2.354-5.562,4.157-11.381,5.368-17.297c1.24-6.062,1.87-12.301,1.87-18.536C-267.081,85.807-267.71,79.57-268.951,73.507z"/>
<path fill="#FFFFFF" d="M-376.801,114.241"/>
<path fill="#FFFFFF" d="M-353.316,127.797"/>
<path fill="#FFFFFF" d="M-362.274,134.598"/>
<path d="M159.891,120.514c1.915-6.899,2.491-14.839,2.491-23.692c0-12.699-4.771-22.856-12.516-30.586
	c1.354-4.369,3.161-14.071-1.806-26.491c0,0-8.762-2.782-28.581,10.482c-7.763-1.94-16.025-2.898-24.302-2.898
	c-9.105,0-18.304,1.159-26.885,3.513C47.839,36.886,38.811,39.744,38.811,39.744c-5.896,14.737-2.25,25.649-1.142,28.36
	C30.74,75.58,26.51,85.122,26.51,96.822c0,8.834,1.008,16.756,3.464,23.643l0.32,0.867c0.542,1.426,1.143,2.809,1.818,4.145
	l0.442,0.84c6.904,12.869,20.517,21.182,44.733,23.792c-3.437,2.31-6.941,6.236-8.365,12.88c-4.684,2.24-19.51,7.709-28.406-7.592
	c0,0-4.979-9.105-14.509-9.818c0,0-9.247-0.141-0.641,5.763c0,0,6.189,2.915,10.456,13.87c0,0,5.568,18.687,32.44,12.69v19.303
	c0,0-0.568,6.827-6.827,9.102c0,0-3.698,2.561,0.286,3.981c0,0,17.35,1.423,17.35-12.798v-21.048c0,0-0.686-8.347,3.412-11.248
	v34.571c0,0-0.283,8.247-4.55,11.377c0,0-2.843,5.118,3.413,3.698c0,0,11.945-1.707,12.515-15.645l0.273-34.985h2.869l0.273,34.985
	c0.568,13.938,12.515,15.645,12.515,15.645c6.256,1.42,3.412-3.698,3.412-3.698c-4.267-3.13-4.55-11.377-4.55-11.377v-34.273
	c4.098,3.191,3.412,10.95,3.412,10.95v21.048c0,14.221,17.351,12.798,17.351,12.798c3.98-1.421,0.285-3.981,0.285-3.981
	c-6.259-2.274-6.827-9.102-6.827-9.102v-27.59c0-10.759-4.53-16.456-8.961-19.464c25.826-2.561,38.22-10.899,43.931-23.856
	l0.362-0.845c0.541-1.309,1.013-2.67,1.433-4.07L159.891,120.514z M94.966,145.347c-28.15,0-50.972-4.239-50.972-31.441
	c0-6.515,3.209-12.562,8.705-17.581c9.162-8.364,24.674-3.934,42.267-3.934c17.525,0,32.979-4.475,42.154,3.833
	c5.563,5.039,8.817,11.126,8.817,17.683C145.938,144.518,123.116,145.347,94.966,145.347z M74.614,115.657
	c0,5.62-3.167,10.175-7.071,10.175c-3.906,0-7.07-4.555-7.07-10.175c0-5.623,3.164-10.181,7.07-10.181
	C71.447,105.476,74.614,110.034,74.614,115.657L74.614,115.657z M74.614,115.657 M131.511,115.657c0,5.62-3.167,10.175-7.071,10.175
	s-7.07-4.555-7.07-10.175c0-5.623,3.166-10.181,7.07-10.181S131.511,110.034,131.511,115.657L131.511,115.657z M131.511,115.657
	 M97.769,129.023c0,1.465-1.187,2.652-2.653,2.652c-1.465,0-2.652-1.188-2.652-2.652s1.188-2.652,2.652-2.652
	C96.582,126.371,97.769,127.558,97.769,129.023L97.769,129.023z M97.769,129.023 M88.937,135.728
	c-0.157-0.444,0.077-0.931,0.521-1.088c0.442-0.156,0.931,0.077,1.087,0.52c0.681,1.928,2.508,3.221,4.547,3.221
	c2.04,0,3.868-1.293,4.551-3.221c0.157-0.444,0.644-0.676,1.088-0.52c0.445,0.157,0.676,0.644,0.52,1.088
	c-0.922,2.605-3.397,4.356-6.158,4.356C92.334,140.084,89.86,138.333,88.937,135.728L88.937,135.728z M88.937,135.728"/>
<path fill="#FFFFFF" d="M-290.31,119.167c1.942-6.997,2.526-15.05,2.526-24.03c0-12.879-4.839-23.181-12.694-31.021
	c1.373-4.431,3.207-14.271-1.832-26.869c0,0-8.887-2.822-28.987,10.632c-7.874-1.968-16.254-2.939-24.648-2.939
	c-9.234,0-18.564,1.176-27.267,3.563c-20.746-14.154-29.902-11.255-29.902-11.255c-5.98,14.947-2.282,26.015-1.159,28.764
	c-7.028,7.582-11.317,17.259-11.317,29.125c0,8.96,1.022,16.995,3.514,23.98l0.325,0.879c0.549,1.445,1.159,2.849,1.844,4.204
	l0.448,0.852c7.002,13.053,20.809,21.483,45.371,24.131c-3.486,2.343-7.041,6.325-8.484,13.062c-4.75,2.272-19.788,7.819-28.811-7.7
	c0,0-5.05-9.234-14.715-9.957c0,0-9.378-0.144-0.65,5.844c0,0,6.277,2.957,10.604,14.068c0,0,5.647,18.952,32.902,12.871v19.577
	c0,0-0.577,6.925-6.924,9.231c0,0-3.751,2.598,0.29,4.038c0,0,17.597,1.443,17.597-12.979v-21.348c0,0-0.695-8.467,3.461-11.408
	v35.062c0,0-0.287,8.365-4.615,11.539c0,0-2.884,5.191,3.461,3.751c0,0,12.116-1.73,12.693-15.866l0.277-35.484h2.911l0.277,35.484
	c0.577,14.136,12.693,15.866,12.693,15.866c6.345,1.44,3.461-3.751,3.461-3.751c-4.328-3.174-4.615-11.539-4.615-11.539v-34.761
	c4.156,3.237,3.461,11.106,3.461,11.106v21.348c0,14.423,17.597,12.979,17.597,12.979c4.038-1.44,0.29-4.038,0.29-4.038
	c-6.348-2.307-6.924-9.231-6.924-9.231v-27.982c0-10.912-4.594-16.69-9.088-19.74c26.194-2.598,38.764-11.056,44.556-24.197
	l0.368-0.856c0.549-1.327,1.028-2.707,1.454-4.128L-290.31,119.167z"/>
<path d="M-356.159,144.354c-28.552,0-51.698-4.3-51.698-31.889c0-6.607,3.254-12.741,8.829-17.832
	c9.292-8.483,25.025-3.989,42.869-3.989c17.775,0,33.447-4.539,42.754,3.887c5.643,5.11,8.942,11.284,8.942,17.935
	C-304.462,143.513-327.608,144.354-356.159,144.354z"/>
<path fill="#FFFFFF" d="M-376.801,114.241c0,5.7-3.212,10.32-7.171,10.32c-3.962,0-7.171-4.62-7.171-10.32
	c0-5.703,3.209-10.325,7.171-10.325C-380.013,103.916-376.801,108.538-376.801,114.241L-376.801,114.241z"/>
<path d="M-376.801,114.241"/>
<path fill="#FFFFFF" d="M-319.094,114.241c0,5.7-3.212,10.32-7.171,10.32s-7.171-4.62-7.171-10.32
	c0-5.703,3.212-10.325,7.171-10.325S-319.094,108.538-319.094,114.241L-319.094,114.241z"/>
<path d="M-319.094,114.241"/>
<path fill="#FFFFFF" d="M-353.316,127.797c0,1.486-1.204,2.69-2.691,2.69c-1.486,0-2.69-1.204-2.69-2.69s1.204-2.69,2.69-2.69
	C-354.52,125.107-353.316,126.311-353.316,127.797L-353.316,127.797z"/>
<path d="M-353.316,127.797"/>
<path fill="#FFFFFF" d="M-362.274,134.598c-0.159-0.45,0.078-0.944,0.529-1.103c0.449-0.159,0.945,0.078,1.104,0.526
	c0.69,1.954,2.544,3.267,4.612,3.267c2.069,0,3.923-1.312,4.616-3.267c0.159-0.451,0.652-0.686,1.103-0.526
	c0.451,0.158,0.685,0.652,0.526,1.103c-0.935,2.643-3.446,4.419-6.246,4.419C-358.829,139.017-361.337,137.241-362.274,134.598
	L-362.274,134.598z"/>
<path d="M-362.274,134.598"/>
<path fill="#FFFFFF" d="M896.374,110.044v107.625l35.982,0.791l-4.504-6.306c2.135,0.203,3.666,0.079,3.666,0.079
	c3.924-1.398,0.094-3.924,0.094-3.924c-6.168-2.242-6.978-8.969-6.978-8.969v-27.189c0-10.605-4.215-16.221-8.582-19.184
	c25.452-2.525,37.918-10.744,43.545-23.514l0.358-0.832c0.532-1.289,0.998-2.629,1.412-4.01l0.246-0.854
	c1.164-4.19,1.822-8.774,2.159-13.715H896.374z"/>
<path fill="#FFFFFF" d="M835.438,109.945c0.566,0.987,0.763,2.227,0.341,3.66c-0.904,3.075,4.048,9.268,5.36,12.127
	c2.223,4.84,4.868,6.765,9.082,9.731c3.458,2.435,7.04,6.435,11.203,7.59c4.555,1.265,10.091,0.727,14.783,0.473
	c5.445-0.295,6.267,6.795,2.525,9.214c0.397,0.043,0.789,0.089,1.193,0.129c-4.367,2.963-8.582,8.578-8.582,19.184v27.189
	c0,0-0.81,6.727-6.978,8.969c0,0-3.83,2.525,0.094,3.924c0,0,1.531,0.124,3.666-0.079l-4.504,6.306l35.982-0.791V109.945H835.438z"
	/>
<path d="M1281.882,73.507c-1.211-5.916-3.017-11.735-5.367-17.295c-2.31-5.457-5.164-10.719-8.488-15.64
	c-3.291-4.871-7.07-9.451-11.231-13.612c-4.162-4.162-8.741-7.941-13.612-11.231c-4.922-3.325-10.184-6.181-15.641-8.489
	c-5.561-2.352-11.38-4.159-17.296-5.369C1204.183,0.629,1197.942,0,1191.709,0c-6.235,0-12.474,0.629-18.536,1.87
	c-5.916,1.21-11.734,3.017-17.295,5.369c-5.457,2.308-10.719,5.164-15.641,8.489c-4.87,3.291-9.45,7.069-13.611,11.231
	c-4.162,4.162-7.941,8.742-11.23,13.612c-3.326,4.921-6.182,10.183-8.489,15.64c-2.353,5.561-4.16,11.38-5.37,17.296
	c-1.241,6.063-1.87,12.3-1.87,18.535s0.629,12.474,1.87,18.536c1.21,5.916,3.018,11.734,5.369,17.297
	c2.308,5.455,5.164,10.719,8.488,15.64c3.291,4.87,7.069,9.45,11.231,13.612s8.741,7.939,13.612,11.23
	c4.921,3.324,10.183,6.182,15.64,8.488c5.562,2.354,11.379,4.158,17.295,5.369c6.063,1.24,12.3,1.869,18.536,1.869
	c6.234,0,12.475-0.629,18.535-1.869c5.916-1.211,11.734-3.018,17.296-5.369c5.457-2.309,10.719-5.164,15.642-8.488
	c4.869-3.291,9.449-7.068,13.611-11.23c4.161-4.162,7.939-8.742,11.23-13.612c3.324-4.921,6.182-10.185,8.488-15.64
	c2.354-5.562,4.157-11.381,5.368-17.297c1.24-6.062,1.87-12.301,1.87-18.536C1283.752,85.807,1283.122,79.57,1281.882,73.507z"/>
<path fill="#FFFFFF" d="M1249.356,114.403c0.127-0.644,0.247-1.295,0.353-1.957c0.047-0.285,0.091-0.573,0.133-0.861
	c0.103-0.696,0.193-1.402,0.273-2.117c0.027-0.238,0.058-0.474,0.083-0.715c0.367-3.54,0.509-7.306,0.51-11.294
	c0-10.89-4.091-19.602-10.731-26.229c1.158-3.746,2.709-12.066-1.549-22.717c0,0-7.516-2.386-24.511,8.99
	c-6.656-1.664-13.742-2.484-20.838-2.484c-7.81,0-15.696,0.994-23.056,3.012c-17.541-11.968-25.284-9.517-25.284-9.517
	c-5.054,12.639-1.93,21.997-0.979,24.32c-5.94,6.411-9.567,14.595-9.567,24.628c0,7.574,0.862,14.369,2.969,20.275l0.274,0.744
	c0.465,1.222,0.98,2.408,1.559,3.554l0.378,0.719c5.894,10.99,17.491,18.102,38.091,20.373c-3.79,2.583-7.44,7.467-7.44,16.672
	v6.355c-0.012,0.127-0.04,0.252-0.045,0.38c-0.026,0.726-0.198,1.356-0.474,1.895v15.115c0,0-0.153,3.677-2.89,6.174
	c-0.728,0.616-1.601,1.158-2.663,1.544c0,0-3.332,2.197,0.082,3.414c0,0,0.076,0.006,0.204,0.012
	c0.061,0.025,0.11,0.052,0.177,0.075c0,0,1.081,0.087,2.656-0.021l-3.141,4.138l0.238,0.005l-0.864,1.21l27.942-0.614l0.557,0.013
	l0,0l31.31,0.688l-3.919-5.486c1.857,0.176,3.189,0.068,3.189,0.068c3.415-1.217,0.082-3.414,0.082-3.414
	c-5.367-1.951-6.071-7.805-6.071-7.805v-23.658c0-9.229-3.668-14.114-7.468-16.692c22.146-2.197,32.994-9.349,37.891-20.46
	l0.312-0.724c0.463-1.122,0.868-2.288,1.229-3.489l0.214-0.743c0.234-0.842,0.438-1.708,0.628-2.586
	C1249.256,114.931,1249.304,114.665,1249.356,114.403z"/>
<g>
	<path d="M-713.458,101.542c11.028,0,20,8.972,20,20s-8.972,20-20,20s-20-8.972-20-20S-724.486,101.542-713.458,101.542
		 M-713.458,97.542c-13.255,0-24,10.745-24,24s10.745,24,24,24s24-10.745,24-24S-700.203,97.542-713.458,97.542L-713.458,97.542z"/>
</g>
<g>
	<path d="M-603.458,125.561c3.86,0,7,3.141,7,7s-3.14,7-7,7s-7-3.141-7-7S-607.318,125.561-603.458,125.561 M-603.458,124.561
		c-4.418,0-8,3.582-8,8s3.582,8,8,8s8-3.582,8-8S-599.04,124.561-603.458,124.561L-603.458,124.561z"/>
</g>
<path d="M-699.95,125.05l-0.049,0.173c-0.084,0.278-0.178,0.549-0.285,0.809l-0.072,0.168c-1.136,2.577-3.652,4.236-8.789,4.746
	c0.881,0.598,1.731,1.731,1.731,3.872v5.486c0,0,0.164,1.358,1.409,1.811c0,0,0.773,0.51-0.019,0.792h-13.446
	c-0.792-0.283-0.117-0.792-0.117-0.792c1.245-0.452,1.297-1.811,1.297-1.811v-3.839c-5.311,1.192-6.396-2.524-6.396-2.524
	c-0.848-2.179-2.051-2.759-2.051-2.759c-1.711-1.175,0.142-1.146,0.142-1.146c1.896,0.142,2.893,1.953,2.893,1.953
	c1.77,3.043,4.722,1.954,5.654,1.51c0.282-1.321,0.982-2.103,1.665-2.562c-4.817-0.519-7.523-2.172-8.896-4.731l-0.087-0.168
	c-0.134-0.266-0.253-0.54-0.361-0.824l-0.064-0.173c-0.488-1.369-0.688-2.944-0.688-4.702c0-2.327,0.841-4.226,2.219-5.713
	c-0.22-0.539-0.945-2.708,0.228-5.641c0,0,1.795-0.568,5.864,2.207c1.707-0.468,3.536-0.698,5.348-0.698
	c1.646,0,3.29,0.19,4.833,0.577c3.942-2.639,5.686-2.087,5.686-2.087c0.987,2.473,0.627,4.401,0.359,5.271
	c1.54,1.537,2.489,3.558,2.489,6.083C-699.455,122.1-699.569,123.678-699.95,125.05z"/>
<path d="M-663.625,97.542c-13.255,0-24,10.745-24,24s10.745,24,24,24s24-10.745,24-24S-650.37,97.542-663.625,97.542z
	 M-657.518,140.581c-0.046-0.163-0.063-0.276-0.063-0.276v-5.486c0-2.141-0.85-3.274-1.731-3.872
	c5.137-0.51,7.652-2.169,8.789-4.746l0.072-0.168c0.107-0.26,0.201-0.53,0.285-0.809l0.049-0.173
	c0.381-1.372,0.495-2.95,0.496-4.713c0-2.525-0.949-4.546-2.489-6.083c0.268-0.869,0.628-2.798-0.359-5.271
	c0,0-1.743-0.552-5.686,2.087c-1.543-0.387-3.187-0.577-4.833-0.577c-1.812,0-3.641,0.23-5.348,0.698
	c-4.069-2.775-5.864-2.207-5.864-2.207c-1.173,2.933-0.448,5.102-0.228,5.641c-1.377,1.487-2.219,3.386-2.219,5.713
	c0,1.758,0.2,3.333,0.688,4.702l0.064,0.173c0.108,0.284,0.227,0.559,0.361,0.824l0.087,0.168c1.373,2.56,4.079,4.213,8.896,4.731
	c-0.683,0.46-1.383,1.241-1.665,2.562c-0.932,0.444-3.885,1.533-5.654-1.51c0,0-0.997-1.812-2.893-1.953
	c0,0-1.853-0.029-0.142,1.146c0,0,1.203,0.58,2.051,2.759c0,0,1.084,3.717,6.396,2.524v3.839c0,0-0.017,0.262-0.13,0.59
	c-8.631-2.216-15.038-10.039-15.038-19.352c0-11.028,8.972-20,20-20s20,8.972,20,20
	C-643.625,130.441-649.469,137.993-657.518,140.581z"/>
<path d="M-576.375,124.561c-4.418,0-8,3.582-8,8s3.582,8,8,8s8-3.582,8-8S-571.956,124.561-576.375,124.561z M-574.339,138.907
	c-0.016-0.054-0.021-0.092-0.021-0.092v-1.829c0-0.713-0.283-1.091-0.577-1.29c1.712-0.17,2.551-0.724,2.93-1.582l0.024-0.057
	c0.036-0.086,0.067-0.177,0.095-0.27l0.016-0.058c0.127-0.457,0.165-0.983,0.166-1.57c0-0.842-0.316-1.516-0.83-2.028
	c0.089-0.289,0.209-0.933-0.12-1.757c0,0-0.581-0.184-1.895,0.696c-0.515-0.129-1.062-0.192-1.611-0.192
	c-0.604,0-1.214,0.076-1.783,0.232c-1.356-0.925-1.955-0.735-1.955-0.735c-0.391,0.978-0.149,1.7-0.076,1.88
	c-0.459,0.496-0.739,1.129-0.739,1.904c0,0.586,0.066,1.111,0.229,1.567l0.021,0.058c0.036,0.095,0.076,0.187,0.121,0.274
	l0.029,0.057c0.458,0.853,1.359,1.404,2.965,1.577c-0.228,0.153-0.461,0.413-0.555,0.854c-0.311,0.148-1.295,0.512-1.885-0.503
	c0,0-0.332-0.604-0.964-0.651c0,0-0.618-0.01-0.047,0.382c0,0,0.401,0.193,0.684,0.92c0,0,0.361,1.239,2.132,0.842v1.279
	c0,0-0.006,0.087-0.043,0.196c-2.877-0.738-5.013-3.346-5.013-6.45c0-3.676,2.991-6.667,6.667-6.667s6.667,2.991,6.667,6.667
	C-569.708,135.527-571.656,138.044-574.339,138.907z"/>
<g>
	<path d="M-764.625,101.542c11.028,0,20,8.972,20,20s-8.972,20-20,20s-20-8.972-20-20S-775.652,101.542-764.625,101.542
		 M-764.625,97.542c-13.255,0-24,10.745-24,24s10.745,24,24,24s24-10.745,24-24S-751.37,97.542-764.625,97.542L-764.625,97.542z"/>
</g>
<path d="M-751.486,124.61l-0.048,0.168c-0.082,0.271-0.173,0.534-0.277,0.786l-0.07,0.164c-1.105,2.506-3.552,4.12-8.548,4.616
	c0.857,0.581,1.685,1.684,1.685,3.766v5.337c0,0,0.159,1.321,1.37,1.761c0,0,0.752,0.496-0.019,0.771c0,0-3.319,0.275-3.319-2.476
	v-4.072c0,0,0-1.502-0.738-2.118v6.631c0,0,0.081,1.595,0.907,2.2c0,0,0.563,0.99-0.647,0.716c0,0-2.304-0.34-2.415-3.036
	l-0.047-6.778h-0.555l-0.053,6.778c-0.11,2.696-2.421,3.03-2.421,3.03c-1.21,0.275-0.615-0.712-0.615-0.712
	c0.826-0.605,0.925-2.199,0.925-2.199v-6.688c-0.984,0.561-0.738,2.176-0.738,2.176v4.073c0,2.751-3.363,2.476-3.363,2.476
	c-0.771-0.275-0.114-0.771-0.114-0.771c1.211-0.439,1.262-1.761,1.262-1.761v-3.734c-5.166,1.16-6.221-2.455-6.221-2.455
	c-0.825-2.119-1.995-2.684-1.995-2.684c-1.665-1.143,0.138-1.114,0.138-1.114c1.844,0.138,2.814,1.899,2.814,1.899
	c1.721,2.96,4.593,1.901,5.5,1.469c0.274-1.285,0.955-2.045,1.62-2.492c-4.686-0.505-7.318-2.112-8.653-4.603l-0.085-0.163
	c-0.131-0.258-0.247-0.525-0.352-0.802l-0.062-0.168c-0.475-1.332-0.669-2.864-0.669-4.573c0-2.264,0.818-4.11,2.158-5.557
	c-0.214-0.524-0.919-2.635,0.221-5.486c0,0,1.747-0.553,5.704,2.146c1.66-0.455,3.439-0.68,5.201-0.68
	c1.601,0,3.2,0.186,4.701,0.562c3.834-2.566,5.53-2.029,5.53-2.029c0.96,2.404,0.61,4.28,0.35,5.126
	c1.498,1.495,2.421,3.46,2.421,5.917C-751.004,121.74-751.115,123.275-751.486,124.61z"/>
</svg>
