<?xml version="1.0" encoding="utf-8"?>
<!-- Generator: Adobe Illustrator 16.0.0, SVG Export Plug-In . SVG Version: 6.00 Build 0)  -->
<!DOCTYPE svg PUBLIC "-//W3C//DTD SVG 1.1//EN" "http://www.w3.org/Graphics/SVG/1.1/DTD/svg11.dtd">
<svg version="1.1" id="Layer_1" xmlns="http://www.w3.org/2000/svg" xmlns:xlink="http://www.w3.org/1999/xlink" x="0px" y="0px"
	 width="184.084px" height="184.085px" viewBox="0 0 184.084 184.085" enable-background="new 0 0 184.084 184.085"
	 xml:space="preserve">
<path d="M182.216,73.507c-1.211-5.916-3.017-11.735-5.368-17.295c-2.309-5.457-5.164-10.719-8.488-15.64
	c-3.291-4.871-7.07-9.451-11.231-13.612c-4.162-4.162-8.742-7.941-13.612-11.231c-4.922-3.325-10.184-6.181-15.641-8.489
	c-5.561-2.352-11.38-4.159-17.296-5.369C104.516,0.629,98.277,0,92.043,0C85.807,0,79.57,0.629,73.507,1.87
	c-5.916,1.21-11.735,3.017-17.295,5.369c-5.457,2.308-10.719,5.164-15.64,8.489c-4.871,3.291-9.451,7.069-13.612,11.231
	c-4.162,4.162-7.941,8.742-11.231,13.612c-3.325,4.921-6.181,10.183-8.489,15.64c-2.353,5.561-4.16,11.38-5.37,17.296
	C0.629,79.57,0,85.807,0,92.042c0,6.235,0.629,12.474,1.87,18.536c1.21,5.916,3.017,11.734,5.369,17.296
	c2.308,5.456,5.164,10.719,8.489,15.64c3.291,4.871,7.069,9.451,11.231,13.613c4.162,4.161,8.741,7.939,13.612,11.23
	c4.921,3.324,10.183,6.182,15.64,8.488c5.561,2.354,11.379,4.158,17.295,5.369c6.063,1.241,12.3,1.87,18.536,1.87
	c6.235,0,12.474-0.629,18.535-1.87c5.916-1.211,11.735-3.017,17.296-5.369c5.457-2.308,10.719-5.164,15.641-8.488
	c4.87-3.291,9.45-7.069,13.612-11.23c4.161-4.162,7.94-8.742,11.231-13.613c3.324-4.921,6.181-10.184,8.488-15.64
	c2.353-5.562,4.157-11.38,5.368-17.296c1.24-6.062,1.87-12.301,1.87-18.536C184.086,85.807,183.456,79.57,182.216,73.507z
	 M143.51,88.713l-0.197,0.68c-0.33,1.102-0.701,2.172-1.127,3.201l-0.285,0.664c-4.491,10.189-14.438,16.748-34.748,18.762
	c3.484,2.365,6.848,6.846,6.848,15.307v21.697c0,0,0.646,5.369,5.568,7.158c0,0,3.057,2.014-0.074,3.131
	c0,0-13.494,1.119-13.494-10.064v-16.553c0,0,0-6.102-3-8.611v26.953c0,0,0.33,6.486,3.686,8.947c0,0,2.291,4.025-2.629,2.908
	c0,0-9.368-1.38-9.815-12.341L94.054,123h-2.257l-0.214,27.552c-0.447,10.961-9.842,12.321-9.842,12.321
	c-4.921,1.117-2.501-2.898-2.501-2.898c3.355-2.461,3.761-8.938,3.761-8.938V123.85c-4,2.281-3,8.846-3,8.846v16.553
	c0,11.184-13.669,10.064-13.669,10.064c-3.133-1.117-0.462-3.131-0.462-3.131c4.922-1.789,5.131-7.158,5.131-7.158v-15.18
	c-21,4.715-25.286-9.98-25.286-9.98c-3.356-8.615-8.109-10.908-8.109-10.908c-6.769-4.643,0.559-4.531,0.559-4.531
	c7.495,0.561,11.439,7.721,11.439,7.721c6.996,12.033,18.67,7.732,22.354,5.971c1.118-5.225,3.882-8.312,6.585-10.129
	c-19.045-2.053-29.747-8.59-35.176-18.711l-0.346-0.66c-0.531-1.051-1.004-2.139-1.43-3.26l-0.251-0.682
	c-1.932-5.416-2.723-11.647-2.723-18.594c0-9.201,3.326-16.706,8.774-22.585c-0.871-2.131-3.737-10.713,0.898-22.303
	c0,0,7.101-2.248,23.187,8.727c6.748-1.851,13.982-2.763,21.143-2.763c6.508,0,13.006,0.753,19.111,2.279
	c15.586-10.432,22.477-8.244,22.477-8.244c3.906,9.768,2.484,17.398,1.42,20.833c6.091,6.079,9.843,14.068,9.843,24.054
	C145.469,77.043,145.016,83.287,143.51,88.713z"/>
</svg>
