<?xml version="1.0" encoding="utf-8"?>
<!-- Generator: Adobe Illustrator 16.0.0, SVG Export Plug-In . SVG Version: 6.00 Build 0)  -->
<!DOCTYPE svg PUBLIC "-//W3C//DTD SVG 1.1//EN" "http://www.w3.org/Graphics/SVG/1.1/DTD/svg11.dtd">
<svg version="1.1" id="Layer_1" xmlns="http://www.w3.org/2000/svg" xmlns:xlink="http://www.w3.org/1999/xlink" x="0px" y="0px"
	 width="184.084px" height="184.085px" viewBox="0 0 184.084 184.085" enable-background="new 0 0 184.084 184.085"
	 xml:space="preserve">
<path d="M182.216,73.507c-1.211-5.916-3.017-11.735-5.368-17.295c-2.309-5.457-5.164-10.719-8.488-15.64
	c-3.291-4.871-7.07-9.451-11.231-13.612c-4.162-4.162-8.742-7.941-13.612-11.231c-4.922-3.325-10.184-6.181-15.641-8.489
	c-5.561-2.352-11.38-4.159-17.296-5.369C104.516,0.629,98.277,0,92.043,0C85.807,0,79.57,0.629,73.507,1.87
	c-5.916,1.21-11.735,3.017-17.295,5.369c-5.457,2.308-10.719,5.164-15.64,8.489c-4.871,3.291-9.451,7.069-13.612,11.231
	c-4.162,4.162-7.941,8.742-11.231,13.612c-3.325,4.921-6.181,10.183-8.489,15.64c-2.353,5.561-4.16,11.38-5.37,17.296
	C0.629,79.57,0,85.807,0,92.042c0,6.235,0.629,12.474,1.87,18.536c1.21,5.916,3.017,11.734,5.369,17.296
	c2.308,5.456,5.164,10.719,8.489,15.64c3.291,4.871,7.069,9.451,11.231,13.613c4.162,4.161,8.741,7.939,13.612,11.23
	c4.921,3.324,10.183,6.182,15.64,8.488c5.561,2.354,11.379,4.158,17.295,5.369c6.063,1.241,12.3,1.87,18.536,1.87
	c6.235,0,12.474-0.629,18.535-1.87c5.916-1.211,11.735-3.017,17.296-5.369c5.457-2.308,10.719-5.164,15.641-8.488
	c4.87-3.291,9.45-7.069,13.612-11.23c4.161-4.162,7.94-8.742,11.231-13.613c3.324-4.921,6.181-10.184,8.488-15.64
	c2.353-5.562,4.157-11.38,5.368-17.296c1.24-6.062,1.87-12.301,1.87-18.536C184.086,85.807,183.456,79.57,182.216,73.507z
	 M139.715,72.418c0.045,0.978,0.067,1.961,0.067,2.949c0,30.118-22.925,64.848-64.848,64.848c-12.871,0-24.852-3.773-34.938-10.24
	c1.783,0.211,3.597,0.319,5.437,0.319c10.679,0,20.506-3.645,28.306-9.758c-9.974-0.184-18.391-6.773-21.292-15.828
	c1.392,0.267,2.82,0.41,4.289,0.41c2.079,0,4.092-0.28,6.004-0.8c-10.426-2.095-18.282-11.307-18.282-22.349
	c0-0.096,0-0.191,0.002-0.287c3.072,1.708,6.587,2.732,10.323,2.852c-6.116-4.088-10.139-11.064-10.139-18.971
	c0-4.177,1.124-8.092,3.085-11.458c11.241,13.79,28.036,22.863,46.978,23.814c-0.389-1.668-0.59-3.408-0.59-5.194
	c0-12.586,10.205-22.791,22.791-22.791c6.557,0,12.479,2.768,16.637,7.197c5.191-1.021,10.069-2.918,14.473-5.531
	c-1.7,5.323-5.315,9.789-10.021,12.61c4.611-0.551,9.003-1.776,13.091-3.589C148.034,65.19,144.169,69.205,139.715,72.418z"/>
</svg>
